<svg xmlns="http://www.w3.org/2000/svg" width="2048" height="2048"><path fill="#f7f9ea" d="M0 0h2048v2048H0z"/><path fill="#fbbf4b" d="M974.7 453.7h25.6l76.6-.3h30.6a85 85 0 0 1 38 8.5q11 6 19.5 15.1l1.6 1.6c7.2 7.7 12.5 17 15.8 27a53 53 0 0 1 2.7 16.6V533l-.1 9h2.3l131.5-.2a112 112 0 0 1 41.3 6.3 141 141 0 0 1 53.2 35.1c8.5 9 15 18.9 20.7 29.8l1 2a87 87 0 0 1 11.2 33.4q0 3.7-.2 7.6l1.6-.1c14.3-.5 29.4 3.4 42.5 9q13.3 6 24.9 15.1l2.4 1.8c18.5 14 32 32 42.7 52.5a87 87 0 0 1 6.1 15.4c5.1 15.4 8 30.5 8 46.8v138.2l.3 340v88.7a209 209 0 0 1-11.8 74.6c-9.9 29.2-28.4 54.1-49.7 76a198 198 0 0 1-74.3 45.5 149 149 0 0 1-49.2 6.6h-26.2l-117.2.1h-170.2l-238.1.1H672c-28.4.2-28.4.2-41-3.3l-4.6-1a172 172 0 0 1-79-42 190 190 0 0 1-27.4-28l-2.2-2.8A192 192 0 0 1 482 1414c-3-17-3.4-33.8-3.4-51v-215.9l-.1-345.3c0-17.7 1.1-35 7.8-51.6l.8-2.3A160 160 0 0 1 514 702l2.2-2.6q6.8-7.8 14.8-14.4l2-1.8a128 128 0 0 1 49.8-25.3q12-2.5 24.2-2.9l.2-2.1c2.1-17.8 9.4-34.8 19-49.8A146 146 0 0 1 667 562l1.7-1.1q21.8-14.6 47.8-18.5c13.6-1.4 27.6-.9 41.3-.8h14.7l59.4.2 65.1.2v-2.3l-.1-10.7v-3.7A65 65 0 0 1 916 477l1.6-1.9a71 71 0 0 1 22.9-15.7c11.5-4.6 22-5.7 34.2-5.7"/><path fill="#f9fbec" d="M744.3 599.5h18.6l14.3.1 57.7.2 63.1.2v3.8l.4 78c-.2 16.6-.2 16.6 4.6 32.2l1.3 3a57 57 0 0 0 17 19.8A49 49 0 0 0 939 745q8.6 1.3 17-.8c14-5.4 26.7-14.6 39.1-23q9.6-6.4 19.6-12.3a137 137 0 0 0 16.6-12c2.7-1.9 2.7-1.9 5.6-2.7l2.1-.2 3 2 3.8 2.4 1.9 1.3 1.8 1.2 1.8 1.2q2.7 1.4 5.7 1.9v2l2.7.8a35 35 0 0 1 8.2 4.3l2.8 1.8 3 2a661 661 0 0 0 35.9 22.3c6.8 4 12.7 7.3 20.6 8.1 7.3.3 13.8-.5 20.7-3 7.4-3.2 14-8.5 19.5-14.4a56 56 0 0 0 11.1-23.2c1.3-6 1.8-11.6 1.8-17.7v-3l.3-32.7.1-17.3.3-34 133.4-.2c9.1 0 18.5.2 27 4l6 3q7.3 4 13.6 9.2l1.7 1.3a73 73 0 0 1 18.8 26c5 11.6 5 22.7 4.9 35.1v467.9c0 16.5-2.2 30.6-9.4 45.7a87 87 0 0 1-26 28 68 68 0 0 1-28.5 10.2q-11 .5-22 .3H1067l-189.8.1H745.1c-14.2.1-25.7-.6-38.6-6.8a65 65 0 0 1-7.3-4.4c-9-5.7-16-12.7-22.2-21.4a112 112 0 0 1-8-16.3c-4-10-3.6-20-3.5-30.6v-42.8l-.1-77.8v-76.7l-.1-166.7V674.3c-.2-11 .5-20 5.1-30.2a88 88 0 0 1 25-30.5 80 80 0 0 1 48.9-14"/><path fill="#61dac6" d="M608 713v3l.2 192v2l.2 207.5v37.3a125 125 0 0 0 8.8 49.4 134 134 0 0 0 33.5 49.3c15.7 12.5 31.7 24.1 51.4 29.3a130 130 0 0 0 32 3.5H1310c17.2 0 17.2 0 34.1-2.3l3.8-.7 9.2-2.3 2.7-.6a74 74 0 0 0 18.3-8.4h3v-2l2-1c10.2-5.4 18-13 26-21l2.7-2.6c11.7-12.3 20.9-29.3 26.4-45.3a126 126 0 0 0 6-38.6v-7.9l.1-21.3v-17l.3-140 .1-66.6v-2.1l.4-193.6 9 1.5c5.4 1 10 3.1 15 5.5l3.3 1.6a72 72 0 0 1 22 16.7A72 72 0 0 1 1514 775l.5 2.2c2.3 11.2 1.8 22.6 1.8 34V1041l.2 194.2v131.5c0 17.3-1.3 33.2-8.2 49.4l-1 2.5a144 144 0 0 1-27.5 43.4c-1.8 1.9-1.8 1.9-2.8 4h-2v2l-10.6 9.3a128 128 0 0 1-42.4 24.7l-2.5 1a93 93 0 0 1-32.7 5.4H678.7c-17.6 0-33.6-.2-50.2-6.6l-2.4-1A147 147 0 0 1 569 1459l-2.3-2.8a137 137 0 0 1-27-52.7c-1.5-7.3-1.8-14.5-1.8-22v-61.8l-.2-171.6v-19.3l-.1-191.9v-2.5l-.1-131c0-14.7.5-27.5 6.4-41l2-3.8 1-2 3.1-5.6 1.3-2.5a87 87 0 0 1 25.2-25.6c9.6-5.6 20.2-10 31.5-9.9"/><path fill="#4c2c17" d="M617 702v3l.1 132v2l.1 64.7v2.1l.2 214.5v38.7a96 96 0 0 0 4.6 32l.7 2.4c5.8 18 16 34.3 28.8 48A132 132 0 0 0 682 1264l3 1.7a88 88 0 0 0 17.9 7.1l2 .6c14.7 4 30.7 2.7 45.7 2.7h231.9l195.9.1h132.5c20.6.1 39.2-1.4 58-10.3a131 131 0 0 0 43.3-36.1 127 127 0 0 0 21.8-50c1.5-8.8 1.4-17.6 1.4-26.6v-39.1l.2-73 .1-138.2v-2l.1-64.2v-4l.2-129.7h6.6c12 .2 24.1 4.2 34.8 9.6A100 100 0 0 1 1508 741q13.6 21 16.9 46 .7 10.3.5 20.7v40.8l-.2 65.6v2.1l-.2 70.6v2.4l-.2 104.6v26.6l-.1 91.6v2.9l-.2 152c0 21-2.4 38.6-10.6 58.1l-.9 2.1c-6 14-13.8 26.3-23.5 38-1.7 2-1.7 2-3.6 4.9h-2l-.8 1.7c-4.5 8.3-13.7 14.6-21.3 20a146 146 0 0 1-57.9 24.3l-5.4.1h-33l-116.8.1h-169.5l-237.2.1H677c-28.8.2-28.8.2-41-3.3l-2.3-.6c-19.1-4.8-36.2-15.3-51.5-27.5a153 153 0 0 1-42-54 154 154 0 0 1-12.5-65.1v-557c0-23.2 0-23.2 2.3-33.8l.6-2.8a91 91 0 0 1 18-36.5c9.5-11.2 20-20 33.3-26.4 11.4-5 22.7-7.4 35.1-7.3m-34 17.5c-8 4-13.8 9.2-20 15.5l-2.2 2a82 82 0 0 0-20.6 35.1c-3.4 11.2-2.6 22.8-2.6 34.4v564.1c0 16.2.8 31.3 6.2 46.7l.8 2.3a126 126 0 0 0 28.2 43q3 3.2 5.6 6.5c11 12.6 27.2 23.2 42.6 29.9 14.9 5.8 29 9.3 45 9.3h141.4l137.6.1h3.3l425.3.2c19.5.1 38.4-.8 56.5-9.1l2.9-1.5 1.8-.9c13.5-7 26.5-15.5 36.8-26.7 1.4-1.4 1.4-1.4 3.4-2.4v-2h2a155 155 0 0 0 33.8-56.6q2.4-8.1 4.2-16.4l.5-2c.7-4.3.6-8.6.6-13v-60.8l.2-169v-19l.2-231.4v-89.1c0-16.8-.4-33.3-7.6-48.7a96 96 0 0 0-19.9-27l-2.1-2.2A61 61 0 0 0 1469 720l-3-1.4c-5.1-2.3-9.7-3.8-15.2-4.7l-3.3-.5-2.5-.4v3l-.3 192.2v2l-.3 245c0 16.2-1.9 31.4-7.4 46.8l-.7 2a134 134 0 0 1-33.5 50.4 92 92 0 0 1-21.8 15.6v2l-1.7.4c-2.5.7-4.5 1.7-6.8 3a107 107 0 0 1-52.1 10.7h-61.9l-191.1.1-192.1.1H741.5c-19.3.1-38.2-1.2-56-9.4A151 151 0 0 1 654 1256l-2.5-2c-7-5.7-12.1-12.8-17.5-20l-2-2.6a129 129 0 0 1-22.2-54c-1.4-8.4-1.4-16.8-1.3-25.2V1114l-.2-71.2-.1-157.4L608 713c-9 0-17 2.7-25 6.5"/><path fill="#5b2813" d="M974.7 453.7h25.6l76.6-.3h30.6a85 85 0 0 1 38 8.5q11 6 19.5 15.1l1.6 1.6c7.2 7.7 12.5 17 15.8 27a53 53 0 0 1 2.7 16.6V533l-.1 9h2.3l131.5-.2a112 112 0 0 1 41.3 6.3 141 141 0 0 1 53.2 35.1c8.5 9 15 18.9 20.7 29.8l1 2a87 87 0 0 1 11.2 33.4q0 3.7-.2 7.6l1.6-.1c14.3-.5 29.4 3.4 42.5 9q13.3 6 24.9 15.1l2.4 1.8c18.5 14 32 32 42.7 52.5a87 87 0 0 1 6.1 15.4c5.1 15.4 8 30.5 8 46.8v138.2l.3 340v88.7a209 209 0 0 1-11.8 74.6c-9.9 29.2-28.4 54.1-49.7 76a198 198 0 0 1-74.3 45.5 149 149 0 0 1-49.2 6.6h-26.2l-117.2.1h-170.2l-238.1.1H672c-28.4.2-28.4.2-41-3.3l-4.6-1a172 172 0 0 1-79-42 190 190 0 0 1-27.4-28l-2.2-2.8A192 192 0 0 1 482 1414c-3-17-3.4-33.8-3.4-51v-215.9l-.1-345.3c0-17.7 1.1-35 7.8-51.6l.8-2.3A160 160 0 0 1 514 702l2.2-2.6q6.8-7.8 14.8-14.4l2-1.8a128 128 0 0 1 49.8-25.3q12-2.5 24.2-2.9l.2-2.1c2.1-17.8 9.4-34.8 19-49.8A146 146 0 0 1 667 562l1.7-1.1q21.8-14.6 47.8-18.5c13.6-1.4 27.6-.9 41.3-.8h14.7l59.4.2 65.1.2v-2.3l-.1-10.7v-3.7A65 65 0 0 1 916 477l1.6-1.9a71 71 0 0 1 22.9-15.7c11.5-4.6 22-5.7 34.2-5.7m-38.2 18.5A94 94 0 0 0 924 483l-2.1 2a58 58 0 0 0-10.3 15l-1 1.9a54 54 0 0 0-4.8 24.5l.2 25.6-167.9-.4c-14 0-27.4 1.2-40.7 6l-2 .9a131 131 0 0 0-75.2 79.3c-2.7 8.8-3.5 17-3.2 26.2h-1.8c-15.5-.4-31 1.7-45.3 8a166 166 0 0 0-38.9 26v2h-2v2h-2q-23.4 25.6-34.2 58.6L491 769l-.6 2.7c-2.9 14.7-2.5 29.4-2.5 44.3v47.2l-.1 186.4-.1 187.4v130.5c-.1 17.9 1 35.3 6 52.6l.8 2.8q4 13.5 10.5 26.1l1.2 2.4A187 187 0 0 0 529 1486l1.5 1.8q9 11.2 19.5 21.2h2v2a193 193 0 0 0 74 40 200 200 0 0 0 19 3.5c5.5.8 11 .6 16.6.6h306.7l244.9.1h181.7a122 122 0 0 0 36.4-5.1 158 158 0 0 0 59.9-31.7l9.8-8.4 1.6-1.4q10.7-9.3 19.4-20.6l2-2.2a176 176 0 0 0 37-81.8l.5-2.6c2-12.3 1.8-24.6 1.8-37l.2-43v-2.3l.2-86.3a60075 60075 0 0 0-.1-430.5c0-22.5-2.8-43.2-12.6-63.6-8-16-18.4-29-31-41.7l-2.6-2.6A113 113 0 0 0 1476 670a122 122 0 0 0-40-5.9l.1-2.4a92 92 0 0 0-9.1-40.6c-8.2-17-19.9-31.9-34.5-43.8q-15.3-11.9-33.4-19l-2-1c-13-4.9-26.9-5.6-40.5-5.5h-30.4l-53 .1-58.2.2v-3l.2-16.1c.2-11.1-.5-20.8-4.5-31.3a74 74 0 0 0-18.5-23.9 67 67 0 0 0-28.2-13c-6.6-1.2-13.3-1.1-20-1.1h-77.4l-51.6-.1a73 73 0 0 0-38.5 8.7"/><path fill="#facd4d" d="M1231 836a35 35 0 0 1 13.9 8.3q4.2 4.4 6.4 10 2.3 9.5.3 18.9c-1.9 5-5.9 9-9.6 12.8a122 122 0 0 1-16.4 12.3c-1.3 1-1.3 1-2.7 1.8l-39.9 26.1-22.8 15-34 22.3a997 997 0 0 1-26.6 17.4q-14 8.8-27.6 18.1l-31.6 20.8c-15.2 10.3-15.2 10.3-21.6 11.7a28 28 0 0 1-12.7-2.6c-8.8-4-16.5-9.4-24.3-15l-10-6.7-2-1.3-9.4-6.3q-12.2-8.1-24.3-16.6-7.5-5.4-15.5-10.3-5.8-3.8-11.4-8-6.6-4.8-13.6-9l-7.2-4.9-13.6-9.3-19.9-13.4q-18.5-12.6-37.3-25l-2-1.3-9.1-6.1-3.2-2.1-2.8-1.9c-5.5-3.8-10-7.4-13.4-13.3-2.3-4.7-4-8.8-4.5-14.1A33 33 0 0 1 787 850c2.2-3.9 4.5-6.9 8-9.6 2.7-1.6 5-2.6 8-3.4q7.5-.5 15 0a312 312 0 0 1 28.3 16.7q9.7 6.2 19.1 12.8l25.5 17.3L927 908q35.8 23.5 70.6 48.3l2.4 1.7 4.4 3.2c3.4 2.4 6.6 4.5 10.6 5.8q13.8-8 26.8-17.1a737 737 0 0 1 31.4-20.6q12.5-8 24.6-16.6 8.2-5.7 16.6-11l11.8-7.7 2.6-1.7 13.3-8.6a3892 3892 0 0 0 58.2-38.6l2-1.4 3.8-2.6c8.1-5.4 15.3-6 24.9-5.1"/><path fill="#5a2a14" d="M735.7 590.9h44l126.3.1v1.7l.6 95.1v3a53 53 0 0 0 5 22.4c4.7 7.4 9.8 12.8 17.2 17.6 4.2 2.4 7.9 4 12.7 4.7 5.5.2 10.4-.2 15.6-2 10.2-4.8 19.5-11.5 28.8-17.8l18.6-12q15.4-9.6 30.5-19.7h6q9.5 4.8 18 11l12.1 7.4 20.7 13 11.8 7.6a69 69 0 0 0 27.4 13.4c6.2.3 11.6-.7 17.3-3a54 54 0 0 0 16.6-13.8q6-8.4 8.1-18.6l.2-7.6V691l.3-30 .3-27.4q.1-21.3 1.2-42.6l142.4-.4c12.7 0 24 1.8 35.8 7 12 6 22.6 15.8 30.8 26.4q9 12.7 12 28a243 243 0 0 1 2.3 43.8v449.9a102 102 0 0 1-4.5 35.1 82 82 0 0 1-17.8 31.2l-2.5 2.7a79 79 0 0 1-26.2 18.9 85 85 0 0 1-30.9 5.7h-61.1a41636 41636 0 0 1-188.4.2l-189.4.1H875l-104.3.2h-25.1c-16.9 0-31-2.2-46.3-9.4a97 97 0 0 1-30.4-28.5 89 89 0 0 1-12.7-37.7c-.7-7.5-.5-15-.5-22.6V684.4c0-16 .7-32 7.7-46.7q4.6-9.6 11.6-17.7l1.8-2.4A89 89 0 0 1 708 596a71 71 0 0 1 27.7-5.1m-37.3 20.7a79 79 0 0 0-23.4 24.1c-6 10.7-6 10.7-9.3 22.4l-.1 9.5v51.6l-.1 75.7v78.9l-.2 166.8v112.8c-.2 12.2 1 22.6 5.8 33.8a78 78 0 0 0 50.5 42.3c8.8 1.8 18 1.2 27 1.1h558.1c15.8.1 28.2-1.5 42.7-8a77 77 0 0 0 25.2-22.3c6.7-10 11.9-20.9 14-32.7 1-8 .7-16 .7-24v-84.4l.1-93.2v-20.4l.2-159V676.2c.1-13-.9-24.2-6.5-36a74 74 0 0 0-21.2-26.2q-6.6-4.6-13.8-8.3l-2-1c-7.7-3.9-16.4-4.7-25-4.8h-35.4l-48.6.1-53.1.1v3.6l-.4 73.7c0 14.5-1 27.6-6.8 41A59 59 0 0 1 1157 739l-2.3 1.7a56 56 0 0 1-23.8 4.9 81 81 0 0 1-30.3-13.5l-3.6-2.2q-13.6-8.3-26.7-17.3a41 41 0 0 0-13.3-6.6v-2l-2.8-1c-5.5-2.4-10.3-5.8-15.2-9-2.2.1-2.2.1-5 1q-3.7 2.5-7 5.3a190 190 0 0 1-21.2 14 336 336 0 0 0-18.5 11.9 281 281 0 0 1-21 13c-5.4 3-10.6 5.4-16.7 6.3-7.4 0-13.1-.8-19.8-4A87 87 0 0 1 917 733l-2.1-1.7c-6.3-5.5-9.6-12.7-13-20.2a50 50 0 0 1-3.2-19.3v-3l-.3-34.6-.1-18.3-.3-35.9a22968 22968 0 0 0-137.5-.5l-18.2-.1a75 75 0 0 0-44 12.2"/><path fill="#fbfcee" d="M974 512.9h3.7l76.1-.3h48c10.4-.2 10.4-.2 14.8 1.2 4.2 2 7.4 4.6 10.4 8.2 1.1 3.4 1.1 6 1.1 9.5v39.8L1128 686l-4.8-2.4-2.7-1.3a75 75 0 0 1-7.7-4.5l-2.6-1.8-2.8-1.9q-13.8-9-28-17.8-8.4-5.2-16.7-10.9c-10.1-6.9-10.1-6.9-21.5-11-4-.4-7.3 0-11 1.3-9.8 4-18.5 9.9-27.2 15.9l-9 6.2-5 3.4a985 985 0 0 1-33 21.8h-2a24357 24357 0 0 1-.5-143c-.1-12.6-.1-12.6 2.3-17.8a27 27 0 0 1 8.2-8.2c3.3-1.1 6.5-1.1 10-1.1"/><path fill="#facd4b" d="M740 1338.5h97.7l38.6.1h2.4l182.2.2h83.9l162.2.2c4.6 3 7.7 5.6 11 10 1.3 2.6 1.2 4.7 1.3 7.6 0 4-.3 7.2-2 10.9a26 26 0 0 1-4.7 5.9 29 29 0 0 1-7.6 3.6q-4.8.4-9.6.3H741l-2.7.1c-5.7 0-10-1.1-15.2-3.4l-3-3.4-1.6-1.9c-1.4-1.7-1.4-1.7-2.4-3.7v-14l2.5-3.8 1.4-2c5.7-6 12.2-6.8 20.1-6.7"/><path fill="#fbcd4e" d="M1231 996c5.4 2.8 10 5.3 14 10q3.9 5.2 7 11a44 44 0 0 1-.6 14.4 42 42 0 0 1-10.7 15.2c-5.7 4.8-12.2 8.8-18.4 12.9q-3.2 2.2-6.3 4.5-6.5 4.8-13.4 9.1l-19.4 12.8q-10 6.8-20.3 13.3l-24.7 16.3-3 2q-6.7 4.5-13.3 9.1-7 4.8-14 9.3-8.7 5.6-17.3 11.4l-3.2 2.2-6.2 4.2a56 56 0 0 1-16.2 8.3q-7.2 1.2-14.3-.7-3-1.4-5.7-3.3l-1.9-1.2a24 24 0 0 1-6.6-7.3c-2.6-5-4.6-9.5-4.7-15.2 0-4.2.5-7.6 2.2-11.4a50 50 0 0 1 16.1-17.2q7.6-5.3 15.6-10.1 8.1-5 15.9-10.6 11.7-8.4 23.8-16.3l14.8-9.8 6.2-4.1 2.9-2 23-15.3 38.4-25.8c23.5-16.2 23.5-16.2 40.3-15.7"/><path fill="#4a2812" d="M753.1 1329.4h545.4c5 0 8.5.8 12.9 3s8.4 4.8 11.6 8.6c2.9 4.5 4.7 8.8 5.4 14 .2 5-.2 9.2-2 13.7a44 44 0 0 1-9.4 12.3 27 27 0 0 1-11 5 68 68 0 0 1-9.5.1h-12.8l-45.8.1-178.2.2h-2.6l-181.8.1h-2.4l-100.1.1h-36.3A28 28 0 0 1 712 1373l-1.3-1.8c-2-3.2-2.7-6-3-9.8-.2-4.7-.3-9.3 1-13.9 1.8-4.2 4.8-7.8 8.2-10.8 10.7-8.6 23.1-7.4 36.2-7.3M730 1339l-6.7 3.5c-3.5 2.3-5.2 5-7.3 8.5v14c3.8 5.5 3.8 5.5 8.6 10 3.6 1.5 6.7 2.1 10.6 2.1h63.6l161.8.2h2.6l196.4.1h2.4l123.7.1h12.1c4.5 0 7.8-.5 11.8-2.5 3.3-1.6 3.3-1.6 4.5-3.5l2.7-3.7c1.4-1.9 1.4-1.9 2.2-4.8v-12a36 36 0 0 0-10-11c-2.2-1.3-2.2-1.3-6-1.1H892.6z"/><path fill="#542612" d="M1231 836a35 35 0 0 1 13.9 8.3q4.2 4.4 6.4 10 2.3 9.5.3 18.9c-1.9 5-5.9 9-9.6 12.8a122 122 0 0 1-16.4 12.3c-1.3 1-1.3 1-2.7 1.8l-39.9 26.1-22.8 15-34 22.3a997 997 0 0 1-26.6 17.4q-14 8.8-27.6 18.1l-31.6 20.8c-15.2 10.3-15.2 10.3-21.6 11.7a28 28 0 0 1-12.7-2.6c-8.8-4-16.5-9.4-24.3-15l-10-6.7-2-1.3-9.4-6.3q-12.2-8.1-24.3-16.6-7.5-5.4-15.5-10.3-5.8-3.8-11.4-8-6.6-4.8-13.6-9l-7.2-4.9-13.6-9.3-19.9-13.4q-18.5-12.6-37.3-25l-2-1.3-9.1-6.1-3.2-2.1-2.8-1.9c-5.5-3.8-10-7.4-13.4-13.3-2.3-4.7-4-8.8-4.5-14.1A33 33 0 0 1 787 850c2.2-3.9 4.5-6.9 8-9.6 2.7-1.6 5-2.6 8-3.4q7.5-.5 15 0a312 312 0 0 1 28.3 16.7q9.7 6.2 19.1 12.8l25.5 17.3L927 908q35.8 23.5 70.6 48.3l2.4 1.7 4.4 3.2c3.4 2.4 6.6 4.5 10.6 5.8q13.8-8 26.8-17.1a737 737 0 0 1 31.4-20.6q12.5-8 24.6-16.6 8.2-5.7 16.6-11l11.8-7.7 2.6-1.7 13.3-8.6a3892 3892 0 0 0 58.2-38.6l2-1.4 3.8-2.6c8.1-5.4 15.3-6 24.9-5.1m-21.5 13.6-2.7 1.9-3.3 2.1-1.7 1.2-9.7 6.4-4.2 2.8-8.4 5.7-2.1 1.4-43.9 29-2.5 1.7a4852 4852 0 0 1-56 36.4l-20.4 13.4-17.1 11.3-2.4 1.6-7.1 4.5-2.6 1.7c-7.2 4.6-7.2 4.6-11.5 5.2l-2.9.1-6.7-4.4-1.8-1.3-14.3-9.7-28-19.1-15-10.2-2.3-1.6-9.4-6.4Q916.3 911.5 899 900q-10.3-6.9-20.5-14L848 865.5C832 853 832 853 814 845h-9c-4.7 2.9-8.3 6-12 10-1.1 3.4-1.1 6-1 9.7v6.3c3 5 6.3 8.6 11 12l8.3 5c20.5 12 40 26.5 59.4 40.3q10.9 8 22.4 15 17 10.7 33.3 22.4l19.2 13q7.9 5.3 15.5 10.8 6.5 4.6 13.2 9a443 443 0 0 1 18.4 12.9c8.8 6.3 8.8 6.3 18.8 10.2q5.2.2 10-1.6c9.6-4.7 18.3-10.6 27-16.6l9.7-6.5 2.3-1.6q8.6-5.8 17.6-11.3 8.2-5 16-11 12-8.3 24.4-15.8 14.8-9.4 29.3-19a1951 1951 0 0 1 38.8-25.6l1.7-1.2 6.8-4.5q13.8-9.3 28-17.9c6.7-4 13-8.2 17.8-14.4l1.1-2 1.2-2.1c1-2 1-3.3 1-5.5 0-3.4-.3-6-1.8-9.2-2-3.5-4.5-6-7.6-8.6-2.6-1.7-4.8-3-7.9-3.5-7.1-.2-11.5 2-17.4 6"/><path fill="#5b2b17" d="M973 502.9h3.7l76-.2h47.9c7.9-.1 15 .2 22.4 3.3 3 1.7 5.6 3.4 8 6q3.8 6.1 6 13l.1 8.7v38.8L1137 690l-5 5c-3.9-.1-7.5-.4-11-2q-3-1.6-6-3.6l-1.9-1.3q-5.6-3.6-11-7.6-7.1-5-14.5-9.4l-2.6-1.6-31-19-3-1.8c-5.5-3.3-5.5-3.3-11.6-5l-2.3.1h-2.3c-4.4.4-8.9 3.8-12.6 6q-7.5 4.5-14.7 9.5-10.2 6.9-20.8 13.4a435 435 0 0 0-22.6 14.8q-6 4.1-12.1 7.5h-5l-2-3-.4-152c0-14.5 0-14.5 2.6-21.2 1.6-3.4 3.2-6.2 5.8-8.8a31 31 0 0 1 20-7.1M961 516l-3 3.8-1.6 2.2c-1.6 2-1.6 2-2.4 5l-.1 6.3v38.6L954 683a55 55 0 0 0 12.7-6.7l3-2 3-1.8q8.5-5.5 16.7-11.6 14.8-10.8 30.6-19.9l3-1.8c5-2.7 9.3-4.6 14.9-5 6 .4 10.9 2.4 16.1 5.4q9.8 6 19.4 12.6 12.3 8.3 25 16.1l17.4 11.2 1.9 1.2q5 2.8 10.3 5.3V525a29 29 0 0 0-9-10 23 23 0 0 0-11.1-2.3H980.1c-10-.2-10-.2-19.1 3.3"/><path fill="#532613" d="M1231 996c5.4 2.8 10 5.3 14 10q3.9 5.2 7 11a44 44 0 0 1-.6 14.4 42 42 0 0 1-10.7 15.2c-5.7 4.8-12.2 8.8-18.4 12.9q-3.2 2.2-6.3 4.5-6.5 4.8-13.4 9.1l-19.4 12.8q-10 6.8-20.3 13.3l-24.7 16.3-3 2q-6.7 4.5-13.3 9.1-7 4.8-14 9.3-8.7 5.6-17.3 11.4l-3.2 2.2-6.2 4.2a56 56 0 0 1-16.2 8.3q-7.2 1.2-14.3-.7-3-1.4-5.7-3.3l-1.9-1.2a24 24 0 0 1-6.6-7.3c-2.6-5-4.6-9.5-4.7-15.2 0-4.2.5-7.6 2.2-11.4a50 50 0 0 1 16.1-17.2q7.6-5.3 15.6-10.1 8.1-5 15.9-10.6 11.7-8.4 23.8-16.3l14.8-9.8 6.2-4.1 2.9-2 23-15.3 38.4-25.8c23.5-16.2 23.5-16.2 40.3-15.7m-21 12.9-6.4 4.6-1.8 1.2-9.2 6.3-2 1.3-6 4-30.4 20.3-9.2 6q-2 1.4-3.9 2.6l-11.1 7.5-50.4 33.6c-10.3 7-10.3 7-15.3 10l-2 1.3-5.2 3.3c-6 4-12 9-16.1 15.1a26 26 0 0 0-1 12q1.6 4.6 4 9c3.2 2.8 5.9 4.9 10 6q5 .2 10 0 10.2-5.5 19.6-12.3 11.3-8 22.9-15.8l1.8-1.2q11-7.3 22.1-14.4 15.2-10 30.3-20 8.5-5.9 17.2-11.5l27.7-18.5 3.1-2 6-3.8c15.9-10.3 15.9-10.3 28.3-24.5v-12a36 36 0 0 0-10-11c-2.1-1.2-3.7-2-6.1-2.3h-4.4c-4.6.6-8.6 2.7-12.5 5.2"/></svg>