<svg xmlns="http://www.w3.org/2000/svg" width="1500" height="1500"><path fill="#fdf9e2" d="M0 0h1500v1500H0zm682.8 314.4-3.3.9q-11.4 3.1-22.5 7.7l-3.1 1.2a226 226 0 0 0-54.3 31l-7.6 5.5c-3 2.3-3 2.3-3 4.3l-4 2q-3.8 3.3-7.3 6.7l-3.9 3.6c-10.6 10.2-10.6 10.2-15 15.8l-10.2 12.1A192 192 0 0 0 533 427l-2.1 3.3q-12.7 20.6-22.2 42.8c-2.5 5.4-3.8 7.7-9.7 8.9v3l-1-4c-5 0-5 0-6 1-.4 4.5-.4 4.5 0 9 3 .8 3 .8 6 1h-3.1l-61.3.6h-5.3A97 97 0 0 0 357 521l-3 2.9c-2 2.1-2 2.1-3 5.1h-2c-16 23.3-20.5 45.3-20.4 73l-.1 66.7c-.1 30.6 8.7 54.9 33.5 74.3l4 1a108 108 0 0 1 .4 15.8v13l-.1 29.1-.1 31.6-.6 170.7-.1 28.6c-.3 35.9 7.4 67.6 28.5 97.2l2.5 3.6q3.4 4.5 7.5 8.4l2.5 2.6A194 194 0 0 0 426 1162l4.6 3.6c3.4 2.4 3.4 2.4 5.4 2.4v2h-2c1 3 1 3 5 6h2v2a172.5 172.5 0 0 1 20 11.5c9 5.5 18.9 8.5 29 11.5l3.2 1a52 52 0 0 0 13 1.3h510.6c16.9.1 31.8-1.1 47.2-8.3l5.4-2.2a139 139 0 0 0 73.6-87.8l1.6-5c4.9-18.8 4.8-37.5 4.7-56.7l-.2-59.8a24792 24792 0 0 0-.4-162.8 2177 2177 0 0 1 0-45.2l-.1-3.5c.2-8.5 2.8-11 10-14.6 2.4-1.4 2.4-1.4 3.4-4.4l4-2c8.6-10.1 18-22.3 18-36h2c1-6.7 1.1-13.3 1.2-20.1v-17.6l.1-61.9c.2-28.6-3.8-50.3-23.3-72.4h-2l-2-5c-3-3-3-3-5-3l-1-2-3-1q-4.6-5-9-10.5c-19.7-23.7-49.3-28.6-78.4-28.6h-43.9l-4.2-.1h-3.7c-2.8-.8-2.8-.8-3.6-3.6l-.2-3.2-2.3-6.5-1.3-3.3a61 61 0 0 0-5.4-9.2l-3.9-7.7q-4.5-9.4-10.1-18.3l-1.5-2.5C968.9 415 968.9 415 965 415l-2-5c-4-4-4-4-6-4l-2-4-3-1v-3h-2l-2-4-3.2-1.7c-4.7-2.8-7.3-6.1-10.8-10.3q-11.2-11.9-24-22l-3.2-2.6A214 214 0 0 0 856 327l-4.4-1.9c-22-9.1-44.2-13.7-67.6-17.1l-3.7-.5q-8-.8-16-.7h-3.4l-14.4-.2c-21.9-.2-42.6 2-63.7 7.8M1241 1420v7h38v-7zm46 0-1 10h27v27c7 0 7 0 8-1q.3-7.6.3-15.4v-12.4c-.3-3.2-.3-3.2-3.3-6.2-4.9-.3-4.9-.3-10.7-.2h-5.8l-4.5.2v-2zm105 0c-1.3 5.1-2 9.7-2 15h3q5.6-.2 11 1c1.4 4 1.4 4 1 8h-5.4c-5.6 0-5.6 0-6.6 1v7h5.4c5.6 1 5.6 1 6.8 5.6l-.2 4.4h-15v8h37v-8h-15v-10h11v-8h-11v-9h15v-7h-15v-8c-3.4-.4-3.4-.4-7 0l-1 7c-3 1-3 1-6 1v-8zm-52.2 3.5-.8 3.5-1.1 3.9-4 14.1-1.4 5-1.4 4.8-1.2 4.3c-.9 3.9-.9 3.9-.9 9.9 3.3.6 3.3.6 7 0a26 26 0 0 0 3-11l7.4-.3 4.2-.2 3.4.5 1.6 8.3c1.4 2.7 1.4 2.7 5 3l3.4-.3c.4-6-1-11-2.7-16.7q-3.9-13.4-7.3-26.8c-1-3.5-1-3.5-2-4.5-10.6-.9-10.6-.9-12.2 2.5m31.2-2.5v48h9v-48zm102 1 1 12h-9q.6 8.2 3 16l5-2c.3 7.9.3 7.9-2 9q.8 4.5 2 9l1 4-8-2c1 3 1 3 5 3.8l4-.8c1-4.4 1-4.4 1-9l1-1-.2-7-.3-3.9c-.5-3.1-.5-3.1-3.5-4.1v-2h-2c.3-4.4.3-4.4 1-9l4-1c.4-5.5.4-5.5 0-11zm-186 13-.2 15.3-.2 4.3v8.1c.4 3.3.4 3.3 4.4 7.3 4.7.8 9.4.6 14.1.6h11.2c2.7-.6 2.7-.6 4.7-5.6v-3h-27v-5h6.4l3.7.1c2.9-.1 2.9-.1 3.9-1.1v-21zm-40 20v7h-7v8h39v-8h-7v-7h-8v7h-9v-7z"/><path fill="#fdf9e0" d="m433 779 1 2a160 160 0 0 0 13 .3H509l96.5-.1h188l258.4-.2.4 246.4c.1 32.4.1 32.4-5.4 40.6l-1.5 5.2-1.5 4.8h-2l-.7 2.5c-2.6 7.1-8.2 13-13.3 18.5h-2l-1 3c-3.2 3.2-6 4.9-10 7l-3.3 2a71 71 0 0 1-39.2 8.7h-40.9l-76.6-.1-145-.2h-4.4l-192.3-.2c-12.7 0-24-.5-36.3-4.2l-5-1.4c-5.5-1.7-10-3.8-15-6.6v-2l-4-1v-2l-5-2 2-1v-5l-3-1v-2h-2q-4.3-9.2-7-19l-1.6-4.6a71 71 0 0 1-3.6-27.3v-64.8l.1-93.7zm421.6 60.4q-6.7 6.6-14.1 12.4C838 854 838 854 838 856h-2v2h-2c-3 3-3 3-3 5l-3 1v2l-3 1v2l-5 2c-2.3 2.1-2.3 2.1-5 5l-8.1 8.2-2.2 2.2a57 57 0 0 1-8.7 7.6v2l-4 2c-4.8 3.3-8.2 7.6-12 12-6.4 6.6-6.4 6.6-10 9v2l-4 2-5.5 5.4q-4.4 4.8-9.5 8.6v2l-6 3-2-4c-5.5-6-5.5-6-8-6l-2-4c-6.5-7-6.5-7-9-7l-2-4a316 316 0 0 0-15.8-16.1l-13-13-2.4-2.4c-5.6-5.5-5.6-5.5-7.8-5.5l-2-4c-6.5-7-6.5-7-9-7l-2-4-9-9.2-2.5-2.6c-6.2-6.2-6.2-6.2-8.5-6.2v-2l-5-4-2.2-2.7C641 836 641 836 639 836v-2c-9.2-7.5-18.1-12.6-30-7.7-10.8 6.3-17 16.1-16 28.7 3.5 9.8 9 16.5 17 23l5 5 3.4 3.4L629 897l2.7 2.7q4.1 4.2 8 8.8c2.3 2.5 2.3 2.5 5.8 5.5q7.4 6.6 14.3 13.7l2.7 2.8 37.3 37.4 2.9 3 2.9 2.9c2.4 2.2 2.4 2.2 4.4 2.2l1 3h2v2l8 7 5 5c10.9 10 10.9 10 17 10v2h-5q5.7 5.9 12 11l2.6 2.4c9.6 4.5 18.5 2.2 26.4-4.4l3.8-3q6.3-6 12.3-12.2l4.7-4.7 2.3-2.3a209 209 0 0 1 18-16.2c2.9-2.6 2.9-2.6 6.3-6.5q5-5.5 10.6-10.1v-2l4-2q3-2.8 5.8-5.7 4.8-5 10-9.7 6.7-5.8 12.7-12.1 6-6 12.3-11.8 8-7.1 15.3-14.8c10-10.1 10-10.1 14.8-14.3a34 34 0 0 0 12.3-34c-2.7-5.7-6.3-9.1-10.9-13.3-2.3-2.3-2.3-2.3-2.3-4.3h-4v-2c-19-21.4-35.7-10.7-52.4 6.4"/><path fill="#fdf9e1" d="M512.9 555.9H741l191.9.1v1H755c2 4 2 4 6 4l.4 3.5.6 3.5h5l1-5h3v-2h-5c1.6-3.3 4.6-2.6 8-3v2q9.7.1 19.3-.5c10.3-.6 20.4-1 30.7.5 7.6.9 13.5 1 21-1 7.2-.4 15-.7 22 1v4c3 .7 3 .7 6 1v-3h-3v-3q7.6-.1 15 1l5 .4 4 .6v3h2l1-3c5 0 5 0 6 2l-1 2h6c-1.5 8.7-1.5 8.7-6 11 .3 3.6.3 3.6 1 7l2-1 1 2 2-1v2h3v9l-3-1v3h-3v2h9v-4c5 0 5 0 7 4q-.2 4.5-.8 9c-.2 3-.2 3 .8 8h2v-2c3.5.2 3.5.2 7 1v4h-4l.5 2.5q.7 5.5.6 11v3.8q-.1 5-1.1 9.7h3v-12h2c1.2 5.1.7 8.1-1 13-.9 4.8-.9 4.8-1 9l4 1 1 2 1-2h7l4-1h2c-1 5-1 5-5 7-1 5-1 5 0 9l3-2-1-4c5.7-5.5 5.7-5.5 10.4-3.8l2.6 1.8v-2c4 2 4 2 5 6l1 2c.4 7.6.4 7.6-2 10l-2 5-3 1-2 2c-3.1-.4-3.1-.4-6-1v2h2l-2 6 5.8-.4 3.2-.3c3-.3 3-.3 7-1.3v-2h2v2c4-1 4-1 5-3l1 8 3-3c2 0 2 0 4 2-1-2-1-2-4-4l81.3-1h4.8c3.9 0 3.9 0 7.9 1 .4 4 .4 4 0 8l-3 1v2h-2v2h-4v2h7c-5 2.5-9.3 2.3-14.8 2.2H681l-275-.2 4-1v-3l-4-1v-4l-3-1c-4-9.6-5.1-18-5.1-28.5V619l.1-33h2v-2h2l1-6c2-4 2-4 4-4l1-4h2l2-4a37 37 0 0 1 24.8-9.4l4.6-.1 5-.1 5.4-.1q30.6-.5 61-.4"/><path fill="#fdfbe5" d="M762.7 372.8h5.9c27.7.1 27.7.1 40.4 3.2l3.8.2c7.3 1.1 14 3.6 21 6l4.3 1.5c10.4 3.6 20.4 7.4 29.6 13.4q4.8 3.3 10 5.5c3.7 1.6 5.6 3.5 8.3 6.4l5 3-1 3 4.1.6c5.4 1.5 7.4 3.1 10.9 7.4v2l3 1c12.8 14 38.9 47.5 35 67q-6.9.8-13.6.6h-58.1l-27-.1-123.8-.2L588 493a40 40 0 0 1 4.8-15l2-4 2.2-4 2.1-4.5c1.9-3.5 1.9-3.5 3.9-3.5l1-4c35.1-53.9 94.7-86 158.7-85.2"/><path fill="#fcd9c0" d="M415 756h668c0 217 0 217-1 229l-1-2h-3l.4 3.8.3 4.9.5 4.9c-.2 4.8-.8 6.1-4.2 9.4l-1 2h4l1 8 3 3q.7 9 .5 18v9c.1 35.2-20 72.2-52.5 88h-4l1-3.7c1-4.3 1-4.3 0-8.3 1-2 1-2 6-2l-2-5v-4l-3-1-1-4-4 1v2l-9 1c4.6-5 4.6-5 8-5l1-3 3.1-2.6c5.9-5.1 10-10.7 13.7-17.5 2.2-3.9 2.2-3.9 4.2-3.9l2-10 2-3c18.6-92.8 3.6-189.3 4-284H434v-2l-4-2-5-5-2.7-2.5-2.6-2.4-2.7-2.5c-2-2.6-2-2.6-2-8.6"/><path fill="#fdf5db" d="M1078 542c9.6.3 18.1 3.1 25 10v2h-17l4 7 1 5 1-4 3.2.5c3.8.5 3.8.5 8.8.5v2l2.8-.8c3.2-.2 3.2-.2 6.2 4.8l2 1 1-3a63 63 0 0 1 4.2 24.5v13.1l.3 56.4c.1 21-2.6 35.3-21.5 47-6.7 1.3-13.3 1.2-20.1 1.2H1067c-3-.2-3-.2-6-2.2v-2h4v-2h2v-2l2-1v-8l-4 1-4-3 2.8-1.7c6.8-4.9 10-10.7 9.2-19.3a27 27 0 0 0-8-11l-2-2c-4-1-7.4-1.1-11.6-1.2h-15.1l-38.5-.1h-14c-8.6.8-14 4.6-17.8 12.3-.3 6.1-.3 10.3 2 16h-7c1-5 1-5 2-6 .3-6.7 0-11-5-16v2l-2.6-1.2c-4.6-1-6 .2-9.4 3.2l-1 3 2 1-4 2v-3l-4-1h3l1-5 4-3 1-4-3 1-2-1-1 2c-.6 0-.6 0-3.5-.6l-3.5-.4-1 3-1-3-5-1 1.5-10.5c.5-3.5.5-3.5 1.5-7.5v-4h-2v12h-3v-27h4v-4l-5 1v-2h-2v2l-3 1c-.7-6.7-1-12.3 0-19-2-2-2-2-6-3v4h-9v-2h3v-3h2c.9-4 .9-4 1-8-4-1-4-1-6 0l-1-2-2 1-1-9 5-1v-6l1-2-5-1v-3l-5-1-1 4-4 1 1-4c-2-1-2-1-5.9-1-6 0-11.3-1-17.1-2v3h3v3l-3 1v-2h-3v-4l-10.5-.1-6-.1c-4.9.2-8.7 1-13.5 2.2-4.4 0-4.4 0-8.7-.3l-4.5-.3c-3.8-.4-3.8-.4-7.8-1.4q-16.7-.5-33.5.9c-3.5.1-3.5.1-8.5-.9v-3l129.5-.8c60.1-.4 60.1-.4 89 0l23.1.4c4.4.4 4.4.4 5.4 3.4l-1 2c5-2 5-2 8-5 6.1-1.5 12.4-1.1 18.6-1.1h3.5c4.5 0 8.5 0 12.9 1.1l1 3 2 1 2-4c9.4.1 9.4.1 12 4l1-1-3-4h5l-1-13-4 1z"/><path fill="#fccd3c" d="m829 330 4.3.8A90 90 0 0 1 851 337l-4 1c-2 1-2 1-2.4 4-.6 3-.6 3-3.6 5l-3-.6-3-.4-2 4-5 1c-1 4-1 4 2 8a97 97 0 0 1-16.9-3.4 249 249 0 0 0-64.3-6.8h-4.3c-27.5 0-58 5.3-82.5 18.2l-3.8 1.8c-23.4 11.4-23.4 11.4-28.2 16.2h-5v2l-4 1v2c-5.6 4.2-5.6 4.2-8 3l-1 4c-5 3-5 3-8 3-2 3-2 3-3 7h-2l-1 2v-2l-3 2 1 2-2 1-1 4-3 1v3h-3v2c-4 3-4 3-6 3v4h-2v2h-3l.8 3.1c.3 4.9-.9 6.3-3.9 10-4.4 6.1-7.7 12.2-10.9 18.9l-6.9 13.6C553 480 553 480 549 481a53 53 0 0 0-3 24c3 3 3 3 5 4v-2c10.9-.1 10.9-.1 12 1l13.7-.5 18-1.1q10-.6 20.3.6v1l-3.8.4c-4.2.6-4.2.6-7.2 2.6l-5-1v3l-2 2c0 4 0 4 2 5 0 6 0 6-2 8l1 2h-9l1-2h-6c-3.8-3.8-3-5-2-10l-4 1 1-4h-2c.9 6.9.9 6.9 2 8v5l-16 1v2h-5.4l-110.1.4c-41 0-41 0-46.5 5.6h-9c0 2 0 2 2 3l-3 .3c-3 .7-3 .7-4 4.7h-2v4h-2v3h-3l-1 5c-3 4-3 4-6 4v-2l-3 1c1 3 1 3 3 4l-1 1v5q-1.3 5-3 10l-.1 9.5V662c0 19.7 0 19.7.8 27.4.3 4.7.3 4.7-2.7 6.7l3 2-1 5c-2 0-2 0-4-3v3h-3l-1-5-3-1-.2 2.9c-.8 3.1-.8 3.1-5.8 5.1v-2h-3v7c-4.5-3-5.1-7.1-7-12l-1-1c-1.2-12.7-1.2-25.5-1.2-38.3v-61.5q.3-6.7 2.2-13.2h3l.4-3.3c.7-5.8 3-10.5 5.6-15.7l2.2-4.7c1.8-3.3 1.8-3.3 3.8-3.3l1-5a88 88 0 0 1 77.4-39.4l54.7-.3h9.9c15.5-1 19-15.6 24-28.3a224 224 0 0 1 15-30l2.1-3.7c1.9-3.3 1.9-3.3 4.6-7 2.3-3.3 2.3-3.3 3.3-6.3l2-1 1.6-2.9q4-6.5 8.6-12.6l3.8-5.5h3v-3h2l2-5c9.2-11 9.2-11 12-11l1-3 7-6 2.4-2.5c3.5-3.4 7.5-5.8 11.6-8.5l2.2-2.3c20.3-19.6 52-32.3 78.8-39.7l3.7-1.1c24.1-7.3 118-23.2 138.3-2.9"/><path fill="#fa805f" d="m939 404 1 2 5 3 4 5.1 2 3 2 2.9 3 4.3q4.6 7.5 8.2 15.1 2.6 5 5.4 9.9c7.3 12.2 12.2 25 16.8 38.4l1.6 4.3.8 5.2c5.6 8.4 15.3 6 24.6 5.8h6.6l17.2-.1 36.9-.4c23.2-.1 45 6.6 60.9 24.5v2l3 1c7.1 8.4 19.8 23.9 17 35l-1.4-3.5c-1.6-3.5-1.6-3.5-3.6-3.5v-5h-3c-1.7 5.2-1 6 2 11 1 4 1 4 1 7h-5v2l3 1v2c3 0 3 0 4-2 2.1 10.6 2.1 10.6 1 14-2 0-2 0-3-2l-4-1v2l-6 1v-3l-5 1v6h-2c-1.7 6.9-1.4 14-1.6 21-.4 5-.4 5-2.4 8v-3.8l-.4-23c-.4-23.9-8-45.6-31.5-56a68 68 0 0 0-29.9-4.6h-72.5l-208-.2h-3.5q-4.2 0-8.2-.4c-1-3-1-3 1-4.9l2.6-2a78 78 0 0 0 8.3-7c2.1-2.1 2.1-2.1 5.1-3.1l2-4 3-1 1-3 5-3-2-2h5.8l136.3-.7h7.3c2.6-.3 2.6-.3 4.6-2.3-1.7-29.5-24.7-60.3-43-82 2-1 2-1 7 0v-2l5-2v-2l5-3 5-5c1-1 1-1 5 0"/><path fill="#f8695f" d="M1150 551c1 5 1 5 0 7l3-1c1.6 4.8 2 6.9 1 12l1.4 3.8c2.2 7.1 2 13.7 2 21.1l.1 4.6.3 42v3.7c.2 2.8.2 2.8 1.2 4.8q.3 10.2.3 20.4v5.8c0 25.4-9.4 49.5-32.4 62.8-6 4.1-6.3 8.6-6.1 15.5v165l.2 104.5h-1V902h-2v-3c-1 1-1 1-1.4 4.3-.6 3.7-.6 3.7-3.6 7.7-3 .4-3 .4-6.2.3l-5.8-.3v3l-3 1-3 11h-1v4.8l-.8 110v3.5c0 4.8-.3 9-1.2 13.7h-1l-1-310-84-1v-1l-12.4-1-3.5-.3q-8.1-.7-16.3-.6c-12.3-.2-12.3-.2-13.8-3.1v3c-3.4.3-3.4.3-7 0l-1-5-3.4.6-3.6.4c-1.7-3.4 0-6.5 1-10l2-1v-5h7v2l5-1 1 2 4-2h4v-2c9.9-5 23.4-3.3 34.2-3.6h5.2l12.6-.4v-1l58.5-.4h4.9c20.1-.3 33.3-10.2 41.6-28.6 2.6-6.8 2.3-13.7 2.4-21v-4l.4-33.5c0-9.2 0-9.2 1.2-12.5q.4-8.5.6-16.9c.4-5.1.4-5.1 2.4-9.1h2v-6l5-1v3l6-1v-2l5 1v2h2c0-5 0-7.6-2-12h-3c-3-3-3-3-3-5l5-1-2-3-1-5-2-5c1.2-6 1.2-6 5-6"/><path fill="#fcfaf9" d="M782.7 540.8h292.1c3.2.2 3.2.2 4.2 2.2h3c1.8 3.7 1 8 1 12a38251 38251 0 0 1-270.6 1.3l-149.4.3h-4l-151.2.2q-30.5 0-61.1.5h-5l-4.7.2h-4.1c-9.2 1-22.8 7.1-25.9 16.5h-2l-1.5 5-1.5 5h-2v2h-2l.6 75.3c.2 35.1.2 35.1 7.4 38.7l1 4 3 1v3c-12.3 1.4-22.4-8-28.4-18-2.9-7-3.8-13.4-3.8-21v-76.4a53 53 0 0 1 27-46.6c6.3-2.4 10.5-2.2 17.2-2l2-2q4.8-.3 9.8-.3h3.1l40.6-.3H492q145.5-.7 290.8-.6"/><path fill="#6d2924" d="M409 747h293.9l376.3-.1h3.3c7.4 0 7.4 0 8.5 1.1l.1 11.7v3.8l.2 61.7.2 172.5v33c.2 46.9-15.7 91.4-60.9 113a77 77 0 0 1-33.4 7.7H974l-22.1-.1h-23.3l-93.9-.1-102.8-.2 1-3c4-.2 4-.2 8 0l-1-3q62-1.1 124-1h96.4c14.2.1 28.4.1 42.6-1v-1l5.8-1.2c38.5-8.8 63-40.8 72.2-77.8 14.5-101.6 1.7-205.3 2-308H415v-2l5.4.2c5.6-.2 5.6-.2 7.6-3.2q6-.3 12.1-.2l11.9.2-43-1z"/><path fill="#fc5e71" d="M1093 889h1l1 35 2-9 4-1v-3l9.2.4c2.8-.4 2.8-.4 4.8-4.4l2-10c2 3 2 3 1 5h2l1 71h1l.3 64.5v5.3c0 38.8-14.2 80-45.3 105.2l-4.6 4.3a113 113 0 0 1-75.1 29h-79l-108.5-.1-118.8-.2c5.1-2.6 9.7-2.3 15.3-2.3h15.2l31.3-.1h23.8l96.6-.3 105.8-.3v-5l5-1 1-2 2 1 1-9h-2l-1-2-4-2v-1l8-2-11-1v-1h4.5c22.3-.3 46-5.3 63.5-20l4.3-3.2a107 107 0 0 0 39-69c.7-3.8.7-3.8 2.7-7.8.3-3 .3-3 .3-6.7v-13.7l.3-55.9.1-29.6z"/><path fill="#702923" d="M1123 867h1l1 29 2-1-1 3.8a45 45 0 0 0 0 20.2c3 0 3 0 4-2 2.1 4.2 1.1 10 1.1 14.6v45.6l.1 52.5c.1 41-6.4 76.9-33.2 109.3l-2 3h-2l-2 4c-3.3 4.8-7.6 8.2-12 12l-2.6 2.4a125 125 0 0 1-25.4 16.6l-5.1 2.8c-18 8.3-34.6 10.6-54.4 10.6H708.4l-201.7.1c-12.2 0-23-.9-34.7-4.5l-4-1.1c-20.4-6.1-40-18.7-55-33.9l-2.6-2.5A147 147 0 0 1 369 1075l-.7-3.2c-3-15-3-15 .7-18.8l2 1-1-5h2c.7-5 .7-5 1-10l-3-1c-.2-3.6-.2-3.6 0-7 2 2 2 2 4 5h1l.3 5.2c2.1 34 10.4 61.7 31.7 88.8l2.2 2.9c4.1 5.4 8.6 9.8 13.8 14.1l3.4 3a133 133 0 0 0 89 30.4h42.7l66.9.1h94.5l150.9.2h124.2a112 112 0 0 0 63.4-18.7l2.8-2q8.5-6 16.1-13.2c2.1-1.8 2.1-1.8 5.1-2.8l1-3 5-5a144 144 0 0 0 33.3-100.4v-16.4l.4-89.5.1-27V898q0-15.4 1.2-31"/><path fill="#fbd8b9" d="m1184 592 3 1c.4 4.3.4 4.3.4 10.3l-.2 57.8v36.6q0 8.6-1.2 17.3h-2v6a88 88 0 0 1-20 32h-2l-1 3-5.5 3c-6.8 4.1-7 8.9-6.8 16.5V826l.1 25.9.1 49a24401 24401 0 0 1 .4 146.8c.3 41 .3 41-5.3 49.4l-.7-3.5-1.3-3.5h-4c.9-8.6.9-8.6 2-12h-2l1-10-2 1v-2h-2v2h-2c1-12.7 1-12.7 2-19-1 1-1 1-1.5 4.6l-.5 3.4h-1l-1.3-178.2a11593 11593 0 0 1-.6-99.8l-.1-21.3-.1-3.6c.1-10.6 5.3-13.7 14.1-18.1v-2l5-5c8-10 13.4-19.7 16.7-32.1 1.3-4.9 1.3-4.9 3.3-6.9q1.4-7.8 1.2-15.7v-5.2l.1-5.6v-5.8l.2-15 .2-15.5.3-30.2c3.4-.2 3.4-.2 7 0l1 3h4c.8-4.5.8-4.5 1-9"/><path fill="#fcd9c0" d="M451 1105c6.6 1.4 12 4 18 7q4 1.2 8 2l5.3 1.6a122 122 0 0 0 28.4 2.7h3.4l11 .2 3.8.1q41.1.6 82.2.7h19.7l165.2.7v3l4-.3 4 .3c1.2 6.2.4 8.6-4 13 4.8 1.2 8.7.9 13.6.6l5-.2c4.4-.4 4.4-.4 7.4-1.4v-3c3-.7 3-.7 6-1v2c5.8-1.3 5.8-1.3 6.8-5 1.2-3 1.2-3 6-4 5.2 0 5.2 0 10.2 1l1-3h2v2l2 1-1 1c3 3 3 3 8 2l1-3c3.6 0 3.6 0 7 1v5l5-1c1 5 1 5 0 6l18 1-3 2q8.4 1.4 16.9 1.2h3l33.5.3 17.8.2 34.8.3v1l-216.1.1h-4.6l-271.9.2h-10A75 75 0 0 1 452 1121l1-3h-2l1-3 1-4-2-1z"/><path fill="#fd7c5e" d="M656 719h366v1h-3.3l-15 .4-5.2.2c-22 .5-22 .5-29.5 2.4v2c-4.4 1.8-4.4 1.8-9 3l-1-2h-4v-2c-3 .2-3 .2-6 1l-1 5h-2l-1 9 3.4-.3 3.6.3 1 5c3.6.3 3.6.3 7 0v-3l3.3 1c13.8 3 13.8 3 17.7-1v3h2.9q12-.1 24.1 1v1H634v-1l22-1-7.4-.4c-7.5-.4-7.5-.4-8.6-2.6 1-5.7 2.6-6.5 8-8l4-4h2v-5l5-1-3-1z"/><path fill="#fc646a" d="M770.7 1152.9h192q14.6-.1 29.3 1.1c-3.3 2.2-6.2 3-10 4l5 1-1 3h2v3l3 1h-3v6l-9 1v5c-6 1.2-11.6 1.2-17.6 1.2h-4l-53.2.1H899l-156.7.3-60.6.1h-16.2c-8 0-8 0-10.3-3.7-.2-3-.2-3 .8-4l9-1 2-1v2l3.6-.5c4.4-.5 4.4-.5 8-.4 3.9-.1 6.1-1 9.4-3.1v-2c5-3 5-3 7-3v-4l3.2-.2 4.2-.2 4.1-.3c3.5-.3 3.5-.3 5.5-1.3l7-.8q1.9 0 3.8-.3c3.2.1 3.2.1 5.2 3.1h5v-2c6.5-1.4 13-1 19.6-.8 3.4-.2 3.4-.2 4.4-2.2a66 66 0 0 1 13.7-1.1"/><path fill="#fbd8b9" d="M447 1175a125 125 0 0 0 63.5 15.2h48.7l156.6.3 74.5.1h4.6l214.1.4v1h-42v3h15v2h2v4c3 .7 3 .7 6 1v1a157888 157888 0 0 1-358.5.6l-94 .1h-25c-12.7 0-23.5-2.5-35.5-6.7l-5.4-1.9q-7.4-3.5-14.2-8-6.9-4-14-7.7c-2.4-1.4-2.4-1.4-2.4-3.4l-4-2c-3-2-3-2-3-4 4-2 9.3 3 13 5"/><path fill="#743129" d="M426.5 532.6h163.2l471.3-.1c31.1-.1 31.1-.1 43 8.5l1 4h2v3h4c3 4 3 4 3 7h3c1 3 1 3 1 5l2 4c1 2 1 2 2 6l-4 3-1.3-2.3c-15.3-27.3-36.3-29.2-65.2-29H1021l-24.1-.1H428.4A51 51 0 0 0 382 572c-2 5.3-2.5 10.3-3 16h-1l-.5 4.5-.5 4.5h-1v-23l-4 4h-1c.7-10.4 6.6-18.2 13-26l1.8-2.6a54 54 0 0 1 40.7-16.8"/><path fill="#6b3429" d="M906 834c6.3 11 2.8 20.2-3.6 30-2.4 3-2.4 3-4.4 3v2l-8 7q-6.7 5.8-13 12a421 421 0 0 1-22 21l-10.7 10.7Q839 925.1 833 930l-8.3 8.4q-5.1 4.9-10.7 9.6l-4.4 4.4C806 956 806 956 804 956l-1 3-5.3 4.6q-5.2 4.7-10.2 9.9c-13.3 13.4-13.3 13.4-19.5 16.5l-1 3c-2.1 2-2.1 2-4.7 4l-2.7 2.2c-7.7 5.3-17 5.8-25 1.1A79 79 0 0 1 719 986q-1.6-1.4-3.3-2.7C713 981 713 981 713 979l-3-1v-2l-4-2-5-4.8-2.5-2.6-7.5-7.6-49.5-49.6-6.9-6.2q-6.2-5.7-11.6-12.2-6.3-6.5-13-12.5c-10.2-9-18-18.3-17-32.5 4-9.5 7.8-15.1 17-20 6 0 6 0 8 1v2h5l1 2-12 2h11v1l-4.1.3c-6.7 1-11.6 3.7-14.9 9.7-1 12.3 2 17.5 11 26l2.4 2.4 7.1 6.5q5.1 4.7 9.5 10.1l3 2v2l3 1c4 4 4 4 4 6l4 2q2.1 2.2 4 4.5c4 4.5 4 4.5 7 6.5v2l3 1 5 6 5 4 9.9 9.8 5.4 5.4 2.8 2.8q1.4 1.2 2.7 2.6l2.4 2.4c1.8 2 1.8 2 1.8 4l4 2 2 4 4 2a247 247 0 0 1 11.2 11.1l16.7 17c5 4.7 9.3 4.3 16.1 3.9 3.3-1.7 3.3-1.7 6-4l3-2.2c3-2.8 3-2.8 6.4-6.7q5-5.5 10.6-10.1l2.5-3c2.8-3.4 6-5.5 9.5-8l4-5 5-5 4-4h2v-2l7.3-5.8q8.5-7.6 16.3-15.9c6.2-6.3 6.2-6.3 8.4-6.3v-2l5.7-5q3.5-3 6.8-6.5 6-6 12.5-11.5 9.5-8.6 18.7-17.7c3.3-3.3 3.3-3.3 7.4-6.8 8.3-7.4 12.7-13 11.9-24.5l-3-5v-2c-8.3-4.2-14-5.6-22.2-.2-3.8 3.2-3.8 3.2-7.8 7.2h-2l-2 4-7 6.8-4.2 3.7-9 8a225 225 0 0 0-11.6 11.4l-2.9 3-2.9 2.9C822 883 822 883 820 883v2l-8 7-3 3.5c-3.4 4-7 7-11 10.5l-11 10.5c-3.2 3-6 5.5-10 7.5l-1 3-8 7-4.4 4.4C751.1 951 751.1 951 744 951c-2.6-1.9-2.6-1.9-5.1-4.3l-2.6-2.4C731 939 731 939 731 935c5 1 5 1 9 5 4.9 1.2 6.4 1.3 11-1l2-4 8-7 3.9-4c3.1-3 3.1-3 5.1-3l1-3 8-7 7-7c8-8 8-8 10-8l1-3 5.6-5q3.9-3.4 7.4-7c11.9-12 11.9-12 15-12l1-3h2l1-3h2v-2c3-3 3-3 5-3v-2h2l1-3 8-6 8.2-8.3c15.9-16.2 34.6-28.5 50.8-4.7"/><path fill="#fad9bc" d="M748 357.7h9.5c13.4-.1 26.3 1 39.5 3.3l5.4 1a162 162 0 0 1 47.6 17l8 4c-4 1-4 1-6 1l-1 2 3 1-1 2q-6.4-.8-12.4-3.2l-3.7-1.3-7.6-2.8c-7.7-2.8-15-4.5-23.3-5.3-3-.4-3-.4-6-1.4-12.3-1.3-24.7-1.3-37-1.3l-5.8-.1c-25.3-.1-51.7 4.6-74.2 16.4q-1.5.7-3.2 1.7-18.5 9.5-34.8 22.3l-3 1-2 4-4.4 4c-9.7 8.6-18 17.5-25.6 28l-3.5 4.6C604 459 604 459 603 462h-2l-.8 3c-1.4 4.6-3.6 8-6.2 12l-1 3h-2l-2-6-2 5-2-2-6-1v3h-6v-2c-3 1-3 1-4 3l-2-1-1 3-5 2c8.5-23 23-43.8 39.8-61.6 2.2-2.4 2.2-2.4 3.2-4.4h2l2-4c36.7-38 88-56.4 140-56.3"/><path fill="#fd755d" d="m471 1146 1 2h6.5c6.4-.2 6.4-.2 7.5 2a85 85 0 0 0 24.6 2.3h11l29.1.1H573l90.2.3 98.8.3v1h-5l-1 3q-5.9.3-11.6.2h-3.3l-8.1-.2v2l-6 1-1-4-2 1-9.2.7c-2.8.3-2.8.3-4.8 1.3l-11 .5c-3 .5-3 .5-4 3.5l-6 4-4 4c-3.7 1.2-6.7 1.1-10.6 1H667q-5.6 0-11 1v4l4 1c-3.3 1-5.6 1.1-9 1.1h-58.6l-72.4.1h-4.2c-9.6 0-9.6 0-11.8-2.2v-3l-6 1c0 2 0 2 2 3h-11c0-2 0-2 3-4l-4-2-1 2-1-1h-2v2h-5v-2l-4-1 2-8-6-2-1 2v-3h-2v-2h-2l-2-5 4-3z"/><path fill="#fefefc" d="M415 762c11 9.3 11 9.3 11 12l4 2c4.2 4.2 3.4 8.1 3.4 13.7v242.1c0 15.9.2 30.7 7.6 45.2 1.7 4.7 3 9.1 4 14h2c3 3 3 3 3 8-5-1-5-1-7-5l-4-2c-5.2-3-7.2-5.8-10-11l-4-4a43 43 0 0 1-3.5-11.4c-.5-2.6-.5-2.6-3.5-3.6l1-4-4-1a97 97 0 0 1-.5-11.3v-48.4l.1-24.8.2-100.4z"/><path fill="#fad5bc" d="M905 833h2v2l4 1 6 7 3.3 3.5c6.3 8.1 6.4 17.7 2 26.8-4 7.5-9 12.2-15.3 17.7l-11 11a355 355 0 0 1-19 18l-11 11a322 322 0 0 1-19 18l-4.4 4.4C839 957 839 957 837 957l-1 3-8 7-2.5 3c-3.2 3.8-6.7 6.8-10.5 10a409 409 0 0 0-22 21.1 235 235 0 0 1-12 10.9l-3.2 2.8c-7.5 6-16 8.1-25 3.6q-4-3-7.8-6.4l-4.2-3.4c-2.8-2.6-2.8-2.6-2.8-3.6h5v-2l4-.4c10.8-1.3 17.6-8 25-15.6 3-3 3-3 5-3l1-3 5.5-4.7q6.2-5.8 12-12c2.5-2.3 2.5-2.3 4.5-2.3l1-3 8-7a227 227 0 0 0 21.3-20.4l2.2-2.2q7-7 14.5-13.4l4.9-5c4.1-4 4.1-4 6.1-4l2-4 4.6-4.2q4.9-4.3 9.5-9 3.8-3.7 7.8-7.2 6.2-5.6 12-11.7c2.1-1.9 2.1-1.9 4.1-1.9v-2h2l2-4 2.6-4c5.2-8.5 4.4-17.1.4-26"/><path fill="#f5ceb2" d="M1134 1046c2.4 4.8 2 5.9 1 11l-2 12h2v-2l5 1c-.9 7.8-.9 7.8-2 10h2l-2 12 5-1c5 9.8-2.6 26-7 35l-2 4c-5.6 11.6-5.6 11.6-9 15l-3 5c-9.5 12.6-20 24-33 33l-3.7 2.6a101 101 0 0 1-26.5 13.7l-3.2 1.4-3 1.2c-12 3.6-24.3 3.4-36.8 3.4h-21c-11-.6-11-.6-12.8-4.3h2v-2h-2v-2h-15v-3l41-1v-1l5-.7a140 140 0 0 0 26.2-7.4c16.9-5.8 32.1-16 44.5-28.7 2.3-2.2 2.3-2.2 4.3-2.2l2-4q2.9-4 6.4-7.3a87 87 0 0 0 8.6-10.7l2-2.9c9.6-13.9 15.8-29.8 19.1-46.3.9-2.8.9-2.8 3.9-3.8.7-2.9.7-2.9 1.2-6.7l.5-4 .5-4.4.5-4.3z"/><path fill="#733128" d="m705 311-1 3 3.5.4 3.5.6v1h10v2l-8 1c-5.9.6-11.3 1.5-17 3l-3.5.8c-20 4.8-38.8 11.6-56.7 21.7l-8 4.2q-8.5 4.8-16.7 10.4l-2.7 1.8c-4.6 3-8.7 6-12.4 10.1-8.5 8-8.5 8-11 8v2l-8 7c-7.2 6.7-13 14.2-19 22l-2.6 3.3c-15 19-26.4 39.7-36.4 61.7l-2 4.5q-2.9 6.6-5.2 13.4c-2.7 8-2.7 8-3.8 10.1q-4.5.2-9.1.2h-19.2l-52.3.1c-23.8 0-57.4 7.7-69.4 31.7l-6 3-1-3h-3c-1-3-1-3 1-6h2l2-4 5-5 2.4-2.4a82 82 0 0 1 62.9-23.6l9.7.1a2956 2956 0 0 1 51 .8l14.1.2c3.9-1.1 3.9-1.1 5.4-5.4l.5-4.7a243 243 0 0 1 33.3-64.3q7.9-11.2 16.7-21.7l2.8-3.3C582.6 365 582.6 365 589 365l1-3q3-2.4 6.3-4.6 1.8-1.4 3.8-2.7l3.9-2.7 3.4-2.4a228 228 0 0 1 37.9-21.7c17.6-8.4 39.9-17.6 59.7-16.9"/><path fill="#fda552" d="M405 871h1v186c-2-2-2-2-4-5l-.4 4.4c-.6 4.6-.6 4.6-2.6 6.6l-.3 3.6-.7 3.4h-5v-2l-4-2c-4.3-4.9-4.4-8.6-4-15-2 0-2 0-5 3v-2h-2c-.1-6.7-.1-6.7 1-9h-2v12h-1l-.1-104.6v-3.2c0-11.2 0-11.2 1.1-15.2l5-2 2.6-3.1c3.7-4.2 7.5-7 12-10.1 2.4-1.8 2.4-1.8 4.4-4.8l3-1c.4-3.8.4-3.8.5-8.8l.1-5.5v-5.8l.2-5.7z"/><path fill="#fdbc3e" d="m382 710 1 4 3.4-.6 3.6-.4 1 2 10 3 5 2q5.2.3 10.6.2h40.2l19.7-.1 38.5-.1c-2.3 4.5-3.9 5.3-8 8l-5 6h-2l-2 4-6 7 3 1h-3.3l-63.7.7h-10.9l-4.6.1c-3.5.2-3.5.2-5.5 1.2-.4 2.6-.4 2.6-.6 6l-.5 7.6-.3 3.9-.6 9.5a51 51 0 0 1-28-16q-.4-5.4-.5-10.8c-.3-10.6-.3-10.6-2.5-16.2h-2l3 5a25 25 0 0 1-10-5v-2l-3-1v-5h4v2l3.3-1 7.7-2v-6c3-3 3-3 5-3z"/><path fill="#fd9652" d="M513 719h143v3h8v1l-4.4.3-4.6.7-1 5h-2l-2 4c-3 2-3 2-8 2l-1 7 28 2v1a2004 2004 0 0 1-96.9 1.1h-68.3c-8.5 0-8.5 0-11.8-1.1a43 43 0 0 1 13-15l5-5 5-5z"/><path fill="#763225" d="M748.5 347.9h4.6C799 348 844.7 358 881 388l3 2.2c2 1.8 2 1.8 3 5.8l4 3v4h2l3 6-3 3v-2l-4-2c-8-6.6-8-6.6-8-9h-3l-4-4a199 199 0 0 0-46-25l-5.1-2q-8.7-2.9-17.5-4.6l-5.9-1.3a241 241 0 0 0-44.6-3.4h-9.6A192 192 0 0 0 616 408l-2.8 2.5c-6 5.2-6 5.2-7.2 7.5h-2l-2 4c-10.4 13.6-10.4 13.6-20 13l1 3h-4c0-6.2 1.3-7 5.6-11.3l3.3-3.5 3.1-3.2q5.3-6 10.3-12 5.6-5.8 12-10.8l6.8-5.8A180 180 0 0 1 685 357l4.3-1.3c19.6-5.7 38.9-7.9 59.2-7.8"/><path fill="#fbd4bc" d="m796 1119 159.5-.2h13.4c3.1.2 3.1.2 6.1 2.2v3h7.3l4.1-.1c4.9.1 6.1.6 9.6 4.1v3h-2v2l-8 2v2l-2 1-1 3c-3.1.4-3.1.4-7.4.4h-15.4l-39.5-.2h-5.2q-11.9.2-23.5-1.2l3-2-16-1c0-3 0-3 1-7l-5 1-1-4c-3-1-3-1-6-1l-1 3c-3 .7-3 .7-6 1v-3l-3-1v-4l-3 3q-5.9 0-11.6-.5c-3.4.5-3.4.5-4.7 3.4l-.7 3.1c-3 2-3 2-6 2v-2c-3 .3-3 .3-6 1v3c-4.7 2.4-8.2 2.5-13.5 2.8l-5 .2c-4.5 0-4.5 0-8.5-2l1.9-2.1c2.1-3 3.1-5.4 4.1-8.9l-4.5-.7-4.5-1.3z"/><path fill="#fb8566" d="M412 1085c4.6 0 4.8 2.7 7 6.6l6 11q3.2 5.3 7.4 10l2.7 3.3c2.9 3.1 2.9 3.1 6.3 5.9 2.6 2.2 2.6 2.2 2.6 4.2l4 2 3.4 2.6a109 109 0 0 0 29.2 15.4c2.4 1 2.4 1 3.4 3-8.5.3-8.5.3-13-2-2 2.8-2 2.8-4 6l-3 1 2 5h2v2l4.5.9 4.5 1.1c0 4 0 4-1 9l3 1v2h5l-4-2v-1c11 0 11 0 14 3l-5 1v2l9-1v-2c2.9-.9 2.9-.9 6-1l2 4c3.2.5 3.2.5 7.4.5h15.8l15.2.1h15.8l64.4.2 70.4.2a22 22 0 0 1-11.8 2.3h-75.6l-75.2.2h-23.6c-22.6 0-44.4-5.8-63.8-17.5l-2.8-1.6A126 126 0 0 1 417 1142l-2.4-2.4c-10-10-29.6-30.6-29.6-45.6h4l2 8h4v2l4 1-1 3v-2h-2l1 6 2-1 1 3 2 1v3l2 1v3l5 2-1-4.4c-1-4.6-1-4.6-1-6.6h3l1-4c4.6-.2 4.6-.2 9 0v-2h2v-5h-2c-1.2-2.5-1.2-2.5-2.4-5.8-1.6-4-2.5-6-5.6-9.2z"/><path fill="#faf18b" d="M685 325v2h5c2 2 2 2 2 5l-9 1-1 3c-2.5 1.2-2.5 1.2-5.8 2.4l-7.7 2.7c-20 7.4-44.2 17.6-59.5 32.9h-2l-1 3c-2.4 2-2.4 2-5.4 4.2l-3 2.2C595 385 595 385 593 385l-1 3h-2l-2 4c-4 4-4 4-6 4l-1 3-5 5c-4.8 5.5-4.8 5.5-6 8h-2v3h-3l-2 4-5.2 7.4q-2.4 3.5-4.6 7.2C551 437 551 437 549 437l-1 4-4 6-4 7-2.8 4.4c-4.1 6.9-7 14.3-10.2 21.6l-4 9-1.3 2.9c-5 11.1-5 11.1-9.7 11.1v3l-33.5-.6h-5.4c-4.1-.4-4.1-.4-5.1-2.4l3.6.2 16.2.5 5.7.3c13.9.2 13.9.2 17.1-6.2l.4-5.8c7-20.8 17.5-42 30-60l2.6-3.9C576.3 381 576.3 381 585 381v-2q2.6-2.3 5.3-4.5l2.9-2.4c2.8-2.1 2.8-2.1 6.8-4.1l1-3c2.3-1.8 2.3-1.8 5.3-3.7l3.3-2.2 3.6-2.3 3.6-2.3c46-29.5 46-29.5 68.2-29.5"/><path fill="#fdc03d" d="M651 504c4.4-.5 4.4-.5 10.3-.4h13.2l6.7.1c18.7.1 18.7.1 26.8 1.3v1h-12v2h6l-2 2v4h3l.5-3 .5-3h3l-1 6h3c1.7 3.1 1.7 3.1 2 7-3.9 3.4-3.9 3.4-8 6l-1-2h-2v3h-6v2c-3.4 1.7-7.2 1.1-11 1.1h-53l-34-.1c1-4 1-4 2-5 0-5-.3-7.5-2-12l3-1v-3h5l-3-.4-3-.6v-1h14.2q8 .2 15.8-1l15.9-.8 4.1-.2v2h2z"/><path fill="#fdd038" d="M399 791c.8 2.6.8 2.6 1 6l.5 2.8q.8 5.2.6 10.6v3.7l-.1 2.9h-2v3h3v-8h1c1.2 5 1.1 10 1.2 15.3v5.7l.2 70.4v5c-.4 3.6-.4 3.6-3.4 4.6l-5 5c-5.7 5-5.7 5-8 5l-1 3-5 1v2h-3v-19.6l-.1-4.2v-3.9c.1-3.3.1-3.3 1.1-7.3q2.4-25.2 3.6-50.5L385 820h2l-1-5c2 1 2 1 2 5h2l-1-16h-2c0-8.9 3-13 12-13"/><path fill="#5fcea9" d="m817 913-1 4c3 3 3 3 8 4l1-2v3h-3v6c-2 2.6-2 2.6-4.6 5l-2.8 2.7c-8.2 7.3-8.2 7.3-10.6 7.3v2l-5 4-2.2 2.8C795 954 795 954 793 954l-1 3h-2l-1 3c-4.5 4-4.5 4-7 4l-1 3q-4.4 4.5-9.2 8.6C768 979 768 979 766 982h-2l-1 3h-1v-5l3 1 1-4 1-1-3-1 4-3 1 1 3-2 2 1 1-4h2l1-5h4v-2h2l1-4 3 1v-2l-4-1-1-3c-2.6.3-2.6.3-6 1l-8 .1h-4.2c-3.8-.1-3.8-.1-8.8-1.1-3.3.8-3.3.8-6 2v2h-4v4.8c0 5.2 0 5.2-1 9.2l-3 1v3h-3v3l-3-1-3 3h-3v-3 6h3l1 4 2 1 3 2 1-2v3h2v2c7.9.3 7.9.3 9-2l4-1v-2h2c-1 4-1 4-6 7-12 1-17.1-4.7-25.1-12.7l-2.8-2.6c-5-5-8-8.8-10.1-15.7l-2-1-1-5c3.9-2.6 6.5-2.1 11-2v-3c6.2-4 6.2-4 9-4l1-2c6 0 6 0 9 5 10.3 1.2 10.3 1.2 14-5 14-13 14-13 20-11v-2h2v-2l2-1 1-3h2v-3l3 1-1 3c5.8-2.5 5.8-2.5 8-7l5-2 4-3 8-1c2.9-2.9 5.1-2.1 9-2"/><path fill="#fdb145" d="M709 503.8h38.9l19 .1 37.1.1q-5.3 5.2-11 10l-6.1 6.2-2.9 2.8-4 4.1c-7.5 6-15.8 4.9-25 4.7h-5.4l-29-.4-28.6-.4 2-1v-2h6v-3l3-1 1 2 2.4-3 3.6-4-1-5h-3l1-6h-3l-.5 3-.5 3h-3l-1-5-3-1c0-6 9-4.2 13-4.2"/><path fill="#733128" d="m368 745 1 22h2l2-6h1v276c-2-1-2-1-3-4 0 5 0 5 2 6 .2 3.2.2 3.2.1 7v4l-.1 3-1-4h-2l1 5-3 1-1 5h-1l-.1-300.9v-3.6c0-10.5 0-10.5 2.1-10.5M1088 495c20.8-1.2 43.5 13.2 56 29l4 4.3a81 81 0 0 1 20.4 54v3.5l.1 36.7.1 46.4c.2 22.2-2.5 42.6-17.6 60.1l-2-1-1 1c-2-1-2-1-3-5l5-1h-2c1-5 1-5 4-7l2-5 2.6-4.6c2.7-6 3.1-11 3-17.6v-86.5c0-29.8-5.3-58.4-29.6-78.3l-2.5-2.6c-8-7.7-18-11.8-28.4-15.5l-4.1-1.9 1-5h-6v-2h-2z"/><path fill="#6d2922" d="M719 710h21v2h47v1h-10c1.7 3.4 4.9 2.3 8.4 2.3h16.1l15.6.1h16.2l65.7.3 72 .3v-3c4-2 9.4-.8 14-.6l3.3.1c8.3.4 8.3.4 11.7 1.5v2l84.6.2h5c4.1-.2 7.5-1 11.4-2.2l1 2a40 40 0 0 1-16.4 2.2H698.4L407 718v-1a3058 3058 0 0 1 91.9-1.4L621 715l-13.6-1.5-3.4-.5v-1h115z"/><path fill="#702e28" d="M886 393c4.3 2.1 7 4.5 10.4 7.8q1.7 1.4 3.4 3.2l3.2 3 3 2.8c2 2.2 2 2.2 2 4.2l3 1 2 5 3 1c16.6 19 40 53 40 79-3.8 3.8-10.5 2.2-15.6 2.2H936l-44.8-.4-74.5-.6c-17.6-.2-17.6-.2-25.7-2.2l-4.2-.5-3.8-.5v-1h14v-2l149-1-6-14-1.7-4.2A188 188 0 0 0 913 434l-3.2-4.4q-3.6-4.5-7.8-8.6c-8.2-8.3-8.2-8.3-7-13l-3-3 1-2h-2l-3-5-3-4z"/><path fill="#fbb846" d="M848 334c7.3 2.8 14 6 21 9.6l2.8 1.5c10 5.3 10 5.3 11.2 8.9l10 6v2l5 2 8 7 4 3 1 5 5 1-2 1 1 3c-4 0-4 0-6-4l-2-1 1-3a22 22 0 0 0-16 2l-5 1-2-3c-4.6-.2-4.6-.2-9 0v3c-8.6 0-14.5-3.1-22-7.2q-11-5.9-22.9-10.3C828 360 828 360 828 357l-3-3h3v-3l5-2 2-3h6l3-1-.1-3.5.1-3.5 5-1z"/><path fill="#fb935f" d="M377 1043h2l-.7 4.4-.3 4.6 3 1 2-3 3 1v4.3c0 5 .4 6.2 4 9.7 3 3 3 3 3 5h5l-.2-4 .2-4 3-1c.2-4.6.2-4.6 0-9h3l1 3 2-3 .5 3.8c1.4 9.2 3 17.5 6.5 26.2v3h-2c1 4 1 4 4 5 4 8 4 8 4 12h2v5h-2v2c-5 1-5 1-9 0v5l-4-1 1 4.4c1 4.6 1 4.6 1 6.6-5-2-5-2-7-6v-3l-5-2c-2-3-2-3-2-8h3l-3-1v-2l-4 1c-2-5.6-2-5.6-2-9l-5-1a64 64 0 0 1-4-11l-1.2-4.3a100 100 0 0 1-1.8-34.7"/><path fill="#733128" d="M768 308c23.6-1.7 47.7 4.7 70 12l4 1.3a201 201 0 0 1 36 16.7l4.1 2.4A215 215 0 0 1 912 362l6.2 5q5.5 4.3 9.8 10c-6 0-6 0-7-2l-4 .4c-6.4-.5-8.3-2.7-12.7-7.1-2.5-2.5-5.3-4.3-8.3-6.3v-2l-5-2q-3.7-2.2-7.2-4.6c-50.8-32-104.3-37-162.8-36.4 3.4-3.4 8.2-2.4 12.7-2.4h3.2l34.1-.6-5-1-4-3 3-.4 3-.6z"/><path fill="#faaa53" d="M882 352c14 7.7 14 7.7 14 10l4 2 10 8 3.6 2.9c2.4 2.1 2.4 2.1 2.4 4.1l4 2c4 4 4 4 4 6l3 1v2l3 1v2h2q2.7 3.2 5.1 6.5l2.8 3.7 2.1 2.8c-3 0-3 0-4-2-7.6 2-7.6 2-9 6l-5 2v2l-5 2v2h-2l-1 2v-2l-5-1-7-8a158 158 0 0 0-19-17l-5.1-4.2q-4.5-3.7-9.5-6.7C867 379 867 379 867 377l9 2v-3c4.4-1 4.4-1 9-1l2 4 3-1.4c6.8-2.8 11.7-4.3 19-2.6v3l2 2 1 4c2-1 2-1 3-4l-4-1-1.3-2.7c-2.1-4.2-5-5.7-8.7-8.3v-2l-4-2c-4-2-4-2-4-4l-5-2c-6-3.6-6-3.6-6-6"/><path fill="#743129" d="m381 688 3 4c7 8.3 11.8 12.2 22 16l5 2a245 245 0 0 0 16.1.3h12.7l33.9.1h25.9l104.7.3 114.7.3v1l-101 1 4 2c-1.9 1.9-5 1.1-7.5 1.2h-14.1l-61.7.3-72.8.3h-5.2a832 832 0 0 0-43.9 1.3c-12 .4-20-.8-29.8-8.1v-2l-4-2c-6.7-7.2-6.7-7.2-8-11l3-1 1-5z"/><path fill="#7d3b2d" d="M590 434a37 37 0 0 1-6.1 10.5A230 230 0 0 0 558 492l-1 2 94 1c-1.6 5-5.2 4.3-10 5-4.6-.2-4.6-.2-8-1v-2l-8-1v2c-8 4-23.8.7-32.8.2s-8.9-.4-12.2 1.8l-5 1 378 1v1l-390.5.2h-12.8c-2.7-.2-2.7-.2-3.7-2.2 1.1-21 16.5-43 28-60l2-3.5 2-2.5 4 2v-2q4-1 8-1"/><path fill="#7a2f28" d="M414 949v3.8l.3 78c0 38.9 15 76.9 49.3 98 3.4 2.2 3.4 2.2 3.4 5.2l-2.7-1-7.3-2-1-3c-4-1-4-1-5-1h-3v-2l-4 1c-2.4-2-2.4-2-5-5l-2.7-2.9a103 103 0 0 1-29.5-72.7v-4.2l.2-43.2h1q2.1-15 2-30l1-3 .7-11.7c.4-4.3.4-4.3 2.3-4.3M484.9 1139c3.1 1 3.1 1 7.9 2.1l3.2.9v2l160 1v1h-4.5l-33.7.7h-3.2c-7.5.2-7.5.2-8.6 1.3h-47l91 1v1l356 1v1l-215.4.2h-4.5l-271 .2c-13.5 0-26-1.2-38.5-6.6l-3.8-1.6-2.8-1.2 4-1-1-5c4.5-1.5 7.6.4 11.9 2"/><path fill="#733327" d="M1074 669q1.1 10-6 17l-8 1v-2l-3.5 1c-7.4 1.3-14.6 1.2-22 1.1h-4.6l-10.9-.1v1l3 .5 3 .5v1l-36.8 1.3-6 .2c-9-.8-13.5-5.6-17.2-13.5-.9-8-.2-12.8 5-19h5l1-2q4.5.4 9 1l-4 2c10.5.1 10.5.1 15-1a492 492 0 0 1 24 0l-14-1v-1l41.8-1.7 3.5-.1c12.8-.5 17 2.5 22.7 13.8m-100-1c-.7 9.3-.7 9.3 4 14 3 1.5 5.9 1.1 9.3 1.2h14.9l38.2.1h13.9c5-.4 9-1.2 10.7-6.3.4-6 .7-9.7-4-14-3.6-1.2-6.5-1.1-10.2-1.2h-14.6l-37-.1h-13.6c-5.4.5-8.6 1.8-11.6 6.3"/><path fill="#b4de76" d="M647 856q7 6 13.4 12.3l3.5 3.5 3.5 3.6 3.7 3.7 8.9 8.9c-6 8-6 8-12.3 6.8l-5.7-.8-1 3h-8l1-3h-2l-1 5h-3v-2h-2v-2h-2c1 4 1 4 4 5s3 1 5 6l6 5-1 2a87 87 0 0 1-12-12l-6-5-2-2.4c-2.6-3.4-5.7-5.9-9-8.6q-6.3-6.1-12-13h3l1 3h2v2l7 1 .4-3 .6-3h2v-2h6l2-7 5-2c2-2 2-2 1-5"/><path fill="#6dd2a4" d="M696 916h3v2l6-2-1 4 1-1c3 1 3 1 4 6l-1 4h2v-2h3l2-2c5.9 4.8 5.9 4.8 7 7l5 2 7.1 7c8.7 9 8.7 9 14.9 9h3v2l-6.4.4-3.6.2c-4.3-.8-4-2.6-5-6.6-3 0-3 0-4 2l-5 1-5 3h-2v3c-3.8.6-3.8.6-8 1l-3 1c1 5 1 5 4 6 1.2 3.6 1.2 3.6 2 7l-3.1-2.7-7-5.9a49 49 0 0 1-6.9-7.4l-7.7-7.6c-3.7-3.8-4.3-6-4.3-11.4l4-1-3-4c0-2 0-2 2-3l-1-4h2l1-3h4z"/><path fill="#733128" d="M934 383a74 74 0 0 1 14 15l2.3 3a218 218 0 0 1 26.7 42l4 7.7c16 32.1 16 32.1 16 43.3l17 1v1h-6v2h-2v-2h-2v2l-3 1v3c-4.6 1-4.6 1-10 0-3-5-4.4-10.5-6-16l-2.4-6.4-1.3-3.2-1.3-3.4-1.7-4.3c-3-7.4-6-14-10.3-20.7l-3.7-7a231 231 0 0 0-30.2-43.3C932 395 932 395 932 393l-2-1 3.5-.9 3.5-1.1v-2l-4 1z"/><path fill="#50cab4" d="M763 952h20v2l5 2v2h-3l-1 3h-2v2h-2l-1 2-1-1-1 4-2 1-1 3-8 2-1 1 2 1-2 5h-2l-2 5-4 3v-2h-2v2c-5.2 3.1-7.1 3.3-13 3v-2l-3.4-.7c-4.6-1.6-4.4-2.8-5.6-7.3h-3v-2l-2-1v-3h2v3h3l1-3 3-1 1-1 3-1 1-3h3l1-14h4v-2c4.9-3.2 7.4-2.8 13-2"/><path fill="#793831" d="M332 562c4 4 4 4 3.3 7.3L334 572l4-1c.3 3.4.3 3.4 0 7l-4 1 1 11-2 2h2v2.8l-.1 3.6-.1 3.6c.2 3 .2 3 2.2 5q.2 5.5.2 11v3.4q-.4 22.8-1.2 45.6h-2l.6 5.3c.5 6.3 0 12.3-.6 18.7l2-3h2l1 10h2a169 169 0 0 1 6.2 13l1.8 4 1 2-1 7v5c2 0 2 0 3-2 4 0 4 0 5.8 2.7 1.2 3.3 1.2 3.3 1.2 8.3-16.5-4.1-27.2-32.2-30-47a365 365 0 0 1-.5-33.6v-59c0-12.5.2-24.3 3.5-36.4"/><path fill="#edc2ae" d="M1029 1106v4l2 1 2 9h-5c0 4.5.5 7 2 11l-3 1-1 2 2 1c-20 9.3-20 9.3-29 7l-8.2-.6-4.4-.2-3.4-.2 1-3-2-1h4v-2c4-2 4-2 8-2v-2h2v-3l-3-1v-2l-3.9-.1-5-.2-5-.2c-4.1-.5-4.1-.5-5.1-3.5l-2-2h4a74 74 0 0 0 31-6.2c11.8-5.2 11.8-5.2 16-3.8v-2c4-2 4-2 6-1"/><path fill="#612522" d="M651 494h5v3h8l-4 2q43 .2 86-1v-2h3v-2h48v3c-3 .7-3 .7-6 1q14.5 2.3 29.2 2.3h4l45.9.3 24.3.1 47.6.3v1H556v-1l19-1-1-2c9-1.1 17.9-.9 27-.4q12 .6 24 .4v-2h10l-2 1v2c5.1 0 10 0 15-1l-4-2h7z"/><path fill="#faf18b" d="M421.4 502.7h4l21.5.2 21.1.1v1a359 359 0 0 1-29.2 1.6H434l-11.9.4v2l-5-1h-13l1 4h2l-1 3h-4l-1 4c-3.2 1.9-3.2 1.9-7.4 3.8-14.3 6.8-31.4 19.5-36.6 35.2h-2l-1 4c-5 8-5 8-10 8l1-9h2c-1-1-1-1-2-1 1.8-24.4 30.1-44.5 51-53a74 74 0 0 1 25.4-3.3"/><path fill="#71d39d" d="M855 881c2 5 2 5 2 8l2 2-4 2v2l-3 2-3 5q-2.7 3-5.6 5.8l-2.9 3C838 913 838 913 836 913v2q-6.8 6.2-14 12v-5h3c-1-1-1-1-6-1-3-3-3-3-3-6l1-2c-6.7.8-6.7.8-9 3l-5-1c3-5.2 6.8-8.7 11.3-12.6l3.9-3.4q5.2-4 10.8-7l2-2h4l2-5c5.4-5.3 10.9-4.7 18-4"/><path fill="#fefbf0" d="M1392 1420h6v8c3 0 3 0 6-1l.4-3.6.6-3.4c3.6-.4 3.6-.4 7 0v8h15v7h-15v9h11v8h-11v10h15v8h-37v-8h15c.2-4.4.2-4.4-1-9-5.6-1-5.6-1-11-1-.1-6.9-.1-6.9 1-8h11c.4-4 .4-4-1-8a55 55 0 0 0-14-1c.9-10.5.9-10.5 2-15"/><path fill="#6b3429" d="m631 838 9 5c-1-1-1-1-3-2l1-3c4 1.3 5.5 3.7 8 7v2h2v2l4 1v3h6c3.6 3 3.6 3 7.4 6.9l3.7 3.8c2.9 3.3 2.9 3.3 2.9 5.3l4 2c7 6.5 7 6.5 7 9l4 2q4.4 4 8.4 8.2l2.5 2.4 18 18 2.4 2.5c5.6 5.6 5.6 5.6 6.7 8.9h-3v2c-5.3 1.8-9.2-2.6-13-6l-7-8c-10.2-10.6-10.2-10.6-13-12v-2l-4-2-5.4-5.2-3.3-3.2-3.5-3.5-3.6-3.6-26.5-26.6-3.6-3.5-3.2-3.2-2.9-3c-2-2.2-2-2.2-2-4.2"/><path fill="#65241c" d="M496 1143h440v1h-3.9l-236.5 1.7H690c-4 .3-4 .3-5 2.3q-5.6.4-11.3.6l-3.7.1c-22 .6-44 .4-66 .3l3-3h-3.9l-88.7-.8h-5.5q-6.5-.2-12.9-1.2z"/><path fill="#7bd28e" d="M875 851c9.4-.4 9.4-.4 15 3l1-3v2l3-1c2 9.5-6.3 14.6-12.9 20.4q-4.7 4.1-9.1 8.6c-11.3 11.4-11.3 11.4-16 13l-1 3-4 2c2-4 2-4 4-4v-2l3-2-3-3 1-4-1-3c-8.1.5-16 1-20 9l-5 2-2.7 2.2c-2.3 1.8-2.3 1.8-4.3.8l17.8-15.2a134 134 0 0 0 10.6-10.4c3.5-3.3 7.1-4.9 11.6-6.4l2-4c3-1 3-1 5 0v-2l4 1-1-4 2-1z"/><path fill="#fcf8ec" d="M1346.4 1420c5.6 1 5.6 1 7.5 4.4l1.1 5.6 2.4 8.7 1.3 4.7 4.6 15.5q1 5 .7 10.1c-3.3.5-3.3.5-7 0-2-3.8-3-6.7-3-11-5.1-.6-10-1-15 0-1.9 5-1.9 5-2 10-2 2-5.4 1-8 1 .6-8.9 3-17.2 5.4-25.7l1.3-4.5q1.6-6 3.3-11.8l.8-3.4c1.2-2.6 1.2-2.6 6.6-3.5"/><path fill="#823925" d="M406 748h1v2.6l1 36.8q.8 28.8 2 57.6h1v28h-2v8l-.1 4.5q.2 6.3 1.1 12.5l.1 8.6v4.3q-.1 5.6-1.1 11.1l3-1c2.4 13.9 3.5 33.5-1 47v8.6c0 3.4 0 3.4-.5 7.3q-1 10.5-1 21.2l-.2 4.3-.3 10.6h-1l-1 32h-1z"/><path fill="#fcd946" d="M405 760h1v60.6q.3 45.1-1 90.4h-1l-1-93-1 2h-3v-3h2q-.8-12-2-24v-2c-5.8.3-7.8 2.2-11 7-.8 3.4-.8 3.4-1 6h2c1.4 5.4 1 10.4 1 16-2 0-2 0-3-2v2h-2v12h-1q-.1-33 1-66l4.6 2.4A131 131 0 0 0 405 775z"/><path fill="#daef8c" d="m890 830 3 3-5 2-7 6.8-3.6 3.7-3.4 3.5q-6.3 6.2-13 12l-7.2 7.3-2.5 2.5-2.3 2.4c-2 1.8-2 1.8-4 1.8l-1 3c-7.4 7.2-7.4 7.2-11 6v-4l-3.2 1.6c-3.8 1.4-3.8 1.4-7.8.4l6.4-6.5 3.6-3.7c3-2.8 3-2.8 5-2.8l2-4q2.6-2.6 5.4-5l3.2-3 3.4-3 6.4-5.9 3-2.6 7.6-7.5c7.4-6.9 11.7-9.9 22-8"/><path fill="#fdd838" d="M1000.7 663.8h3l31.3.2-4 2c0 2 0 2 2 3h-2v5l3-1 1 5h-2l-1 3q-5.9.4-11.6.4h-33.1c-8 0-8 0-10.3-3.4l1-4 1 3c2-2 2-2 1-5h5v-3l-3 1-1-4a74 74 0 0 1 19.7-2.2"/><path fill="#fce86a" d="m512 503 4 1c-3 4-3 4-5 4l-1 3c-4.8 2.2-9.4 2.3-14.6 2.3h-11l-54.5.3c-9.8 0-18.5.7-27.9 3.4v-3l4-1 1-2-4-1 1-4c2.8-.5 2.8-.5 6.3-.4h3.4c3.3.4 3.3.4 8.3 2.4v-2c8-2 16.6-1.4 24.8-1.6l5.5-.2c19.9-.4 40-.4 59.7 1.8z"/><path fill="#f5dbc0" d="M943 392c5 2 5 2 7 6h2v3l4 2 1 3 4 2c4 4.4 4 4.4 4 7h2a255 255 0 0 1 25.3 38.9c16.7 29 16.7 29 16.7 38.1-7.9 1.6-7.9 1.6-12 1a32 32 0 0 1-4.3-10.5l-2-6.4-.8-3.2c-2-6.3-5-12-7.9-17.9l-2-4.6a218 218 0 0 0-17-30.4l-1.8-2.8q-6.2-8.8-13-17.2c-2.2-3-2.2-3-5.2-8"/><path fill="#c7e163" d="M631 841v3l4 1c12 8.4 12 8.4 14 16h-2l-2 2-4 2-2 5h-6v2h-2l-.4 3c-.6 3-.6 3-3.6 4-4-2-4-2-4-4h-2l-4-5-3.2-2.4c-3.3-3-3.8-4.1-3.8-8.6 2.2-3.3 2.2-3.3 5.3-6.6l3-3.4 2.7-3 3-4c3-1 3-1 7-1"/><path fill="#fcf9ed" d="M1287 1435h21c.1 20.9.1 20.9-1 22h-13v5h27c-1 7-1 7-2 8q-6.9.4-13.8.3l-4 .1h-7.2c-3-.4-3-.4-7-4.4-.5-3.3-.5-3.3-.4-7.2v-4.2l.2-4.3v-4.5z"/><path fill="#743432" d="m740 711 155.9-.2h13c3.1.2 3.1.2 6.1 2.2l-1 2 3 1H778l-1-3c-3.5-.4-3.5-.4-8.2-.5l-5-.1h-5.4l-5.3-.2-13.1-.2z"/><path fill="#7ad397" d="m697 906 4 2c3 3 3 3 3 5l4 2q3.8 3.5 7 7.5c2 2.5 2 2.5 5.2 5.1 2.8 2.4 2.8 2.4 3.8 5.4l-3-1v-2l-5-2-1-2-2 3v-2h-3v2h-2l-1-9-2 2c-2-3-2-3-2-4h-4v-2h-3v4l-4 1c-2 3-2 3-2 7h-2l3 5v3l-4-1c1 5 1 5 3 7-4.2 0-5.1-1.9-8-4.9-2.6-2.7-4.9-5-8-7.1-2.5-8.5-2.5-8.5 0-11l1-5c3-3 3-3 7-4l3-3c6.3-4.4 6.3-4.4 12-1"/><path fill="#90492b" d="m349 717 7.5 7.6 2.6 2.8 2.6 2.7c3.3 2.9 3.3 2.9 6 4.3 8.5 4.4 9.9 8.7 9.6 18.2v25.9l-.2 25v26.1l-.3 49.4-.2 56.3-.6 115.7h-1l-1-290-2 8-1-2h-2v12h-1v-2.9l-.4-13-.2-4.5v-4.3l-.2-4c-.4-5.8-.4-6-6.2-8.3-3-4-3-4-3-10l-2-2v-3h-4l-1 3c-3.9-3.9-2.9-4.9-2-10l-2-1h2z"/><path fill="#89524c" d="M409 709h673v1H409z"/><path fill="#fdca58" d="M551 478c3 4.5.5 6.6-1.7 11-2 4.6-2.3 9.1-2.3 14h254v1l-145 1v1h-6v2h-2v-2l-2 1-8.3.5q-11.4.6-22.7 1.5v-2c-8.5 0-16.9-.1-25.3.7q-13.9 1-27.7 1.3v-2h-11v2c-5.9-.6-5.9-.6-7-4h2l-1-3c-.4-7.5.6-14.2 4-21h2z"/><path fill="#986156" d="M415 755h668v1H415z"/><path fill="#fdcb3d" d="m370 691 1 3h2v3h2c6 7.4 6 7.4 6 10l3 1v3l4 1c-3 2-3 2-6.6 2.1-3.4.9-3.4.9-4 4.9l-.4 4-4 1-1 2c-6 0-6 0-7-2-2 0-2 0-4 4l-1-4h-2l-1-5-2.1-2.6c-1.9-2.4-1.9-2.4-.9-5.4l-2-1c1-4 1-4 2-7h3c.7-3 .7-3 1-6l4 1v5h3l-1-3h3v3h2c0-5 0-5-3-7v-2h4z"/><path fill="#89524c" d="M1102 708v2l6-2c0 2 0 2-2 3l-1 4h-6l-5 2q-4.5.2-9.2.1h-5.7l-29-.4-17-.2-33.1-.5v-2l-20-1v-2h102v-2q10-1 20-1"/><path fill="#8c5750" d="M407 747h2v2h89v1l-25.2.6q-22.5.5-44.8.4l17 1v1l-12.2.6-3.5.1c-5 .3-9.4.3-14.3-.7v299h-1l-1-281-2 8-2 3-1 9h-1z"/><path fill="#f8695f" d="M410 718h611v1H410zM409 746h597v1H409z"/><path fill="#713025" d="M414 755v4.2l-.6 61.2q-.5 53.8-.4 107.6h-1l-.4-3-.6-3h-2v-14.8q.2-8.6-1-17.2c-.3-12.3-.3-12.3 1-17h2l-.5-4.5q-.6-6.8-.5-13.5h-1a1638 1638 0 0 1-1.1-60.6V786q.2-6 1.1-11.9l2 2c.9-4.5 1-8.2 1-12.7-.1-8.3-.1-8.3 2-8.3"/><path fill="#fcd133" d="M1047.4 663.9h3.3c8 0 8 0 10.3 1.1v2l4 1c.5 5.2.4 8.3-2 13-3 1.5-5.5 1.1-8.8 1.1h-12.6l-10.6-.1c2-4 2-4 4-4-2-4-2-4-4-4v-8h-5v-1q10.7-1.4 21.4-1.1"/><path fill="#fe8075" d="M485 1149c8.5.9 8.5.9 11.8 1.5q5.9.8 11.8.6h11.2l23.3.1h18.5l153.3.3 287.1.5v1l-215.6.1h-4.6l-271.3.2h-10c-13.8-.8-13.8-.8-15.5-4.3"/><path fill="#fce1c4" d="m1175 570 4 4 2-1v5h2l-.2 3.4c.2 3.6.2 3.6 3.2 5.6 0 6 0 6-2 9l-1 8-1-3h-3l-1-2-7-1v3.2l.2 68.6c0 16.2 0 16.2-2.2 24.2h-1l1-116c2 2 2 2 3 5a56 56 0 0 0 3-13"/><path fill="#bee692" d="M833 879c1 2 1 2 2 7-2.6 2.8-2.6 2.8-6.3 5.8l-4 3.1-3.7 3.1-5.1 4.7c-17 15.4-17 15.4-23.3 15.2-3.6.1-3.6.1-8.6 3.1l-2-1q7.7-7.8 16-15l3.4-3.4c2.6-2.6 2.6-2.6 4.6-2.6l2-4c6.5-7 6.5-7 9-7l1-3h2v-2c2.6-.8 2.6-.8 6-1.6 6-1.3 6-1.3 7-2.4"/><path fill="#7c2b29" d="M1143 726c2 1 2 1 2 7h-3l3 2a79 79 0 0 1-13 11l-1 7h-2v48l-2-2-2 2v-7l-.4 3.5-.6 3.5h-1l-1.3-33.8-.5-12.4-.2-3.9c-.1-9.7 2.2-12.6 11-16.9h6l1-4z"/><path fill="#f5ceb2" d="M496 1190h512v1H496z"/><path fill="#7c382f" d="M746.4 306.6H768c7.8 0 7.8 0 10 3.4l-11 1 4 1v2l3 1h-4.5l-34 .7h-3.3q-9 .3-17.8 1l-5.4.3-1-2-4-1-1-4c14.5-3 28.6-3.5 43.4-3.4"/><path fill="#fefbf0" d="M1287 1420h10v2l4.5-.1h5.8l5.8-.2c4.9.3 4.9.3 7.9 3.3.4 3.2.4 3.2.3 7v13c-.1 10.8-.1 10.8-1.3 12h-7v-27h-27z"/><path fill="#edc2ae" d="M496 1142h503v1H496z"/><path fill="#a1de80" d="M679 889c10 5 10 5 10 9l3 1-1 2-2-1-2 4c-5.1 5.3-8.6 6.8-16 7v-5l-4-1-1 2-1-3h-5v2h-2v-2h-2v3c-4-1-4-1-6-6l-5-2-1-4h2v2h2v2h3l1-5h2v2l4 1 1-2 2 1 1-2 5.8.2c5.7.1 7.5-.8 11.2-5.2"/><path fill="#fce86e" d="m376 757 5 5 3 2c.3 4.3.3 4.3.3 9.8v6L384 808h-2v12h-2v6h-2l-1 19h-1z"/><path fill="#f8e77c" d="M738 318v2h-2c0 2 0 2 2 3-3.3 3.3-7.7 3.2-12.3 4l-3 .5q-8 1.5-15.7 2.5a115 115 0 0 0-17 4.1c-3 .9-3 .9-8 1.9 1-3 1-3 5.6-3.7l4.4-.3c-2-4-2-4-7-5v-2l-3-1 4-.8 5.4-1 5.3-1.1 10.2-2.2a104 104 0 0 1 31.1-.9"/><path fill="#91332e" d="M1128 822h1l1 37h1v60h-1l-1-39v11c-.3 3.7-.3 3.7-1 6h-4l-1-12-1 88h-1V858h2l1-4 2-3c1.2-6 1.3-12.3 1.6-18.4v-3.1z"/><path fill="#f3f17a" d="M631 839q4.1 3.9 8 8c-3 0-3 0-8-3v-3c-6.7.5-6.7.5-9 5l-4.5 5c-7.2 7.8-7.2 7.8-5.5 14l3 2v2l3 1c-4.7 1.6-6-1.5-9-4.8a23 23 0 0 1-6-21.2c7.8-11.1 17-13.4 28-5"/><path fill="#8bd686" d="M896 834c5.3 6.6 5.3 13 2 20.6l-2 3.4c-2-1-2-1-2-4-3-1-3-1-7-1l-4-1h-6l-2-1 1 3h-3l1 4-4-1v2l-5 1-5 5-5 2c4.3-5.2 8.9-9.6 14-14q4.4-4.3 8.5-8.8l3.9-4 3.8-4.2c4.3-3.4 5.7-3.8 10.8-2"/><path fill="#fde2c4" d="M589 473h1c1.9 6.3 2.4 9.4-1 15l-1 5c-2.9.6-2.9.6-6.7.5h-4l-4.4-.2h-4.3L558 493c1.1-8.7 1.1-8.7 5-10l2-2c4-3 4-3 8-4v2l3-1 3 1v-3c6 0 6 0 8 2z"/><path fill="#fefbf0" d="M1371 1421h9v48h-9z"/><path fill="#7c2321" d="M1124 784h1l1 15 1-6h1l1 7h1v60h-1l-1-16-1 12h-1l-.5 4-.5 4h-1l-1-6h-1v-57h2z"/><path fill="#fefaef" d="M1247 1455h8v7h9v-7h8v7h7v8h-39v-8h7z"/><path fill="#fdd44f" d="M383 834h1a523 523 0 0 1-2.3 52.1q-.3 6.1-1.7 11.9l-.4 11.4-.2 4.4v4.4L379 929h3v-2h2c-2 4-2 4-7 5-.3 3.6-.3 3.6 0 7h-1v-94h1l1 11h1q.9-4.6 1.4-9.4l.6-2.6h2z"/><path fill="#c5aaa2" d="M944 489c2 3 2 3 2 5H557c1.6-3.2 3.7-2.2 7.1-2.2h29.4l71.4.1 57.6.1h3.5l52.5.1h3.5l154.9.3h3.5c2.6-.4 2.6-.4 3.6-3.4"/><path fill="#6c2e28" d="M656 495h93l-3 1v2c-7.1 1.4-14.1 1.4-21.4 1.6h-5q-31.8.7-63.6.4l4-2-4-1z"/><path fill="#743129" d="M1127 621v21.6c.1 23.8.1 23.8-3 25.4l.2 5.6q0 12.3-5.2 23.4h-3c-1.1-5.6 0-7.8 2-13 1.6-5 1.6-10 1.5-15.3v-3.4l.2-28.2c0-5.5.2-16.1 7.3-16.1"/><path fill="#7d211d" d="M1104 541a55 55 0 0 1 25.3 47.8V627l-.2 18.6-.1 36.4h-2v-3.4l-.7-73.2q0-13.8-1.3-27.4l-2 2c-1.8-4.5-2-8.2-2-13l-2-1-1-5-2-3 1-3h-3c-3-5-3-5-3-7h-4v-3h-2z"/><path fill="#fecb5e" d="M419 531h358v1H419z"/><path fill="#e9c6af" d="M1131 747h1l1.2 287.8c.2 34.3.2 34.3-2.2 42.2h-3l.4-3.3c1.9-15.8 2-31.5 2-47.4v-59.8l.3-104.8z"/><path fill="#fa805f" d="M422 532h353v1H422z"/><path fill="#723025" d="M347 533c5 2 5 2 6 4l4-2-3.1 4.8A103 103 0 0 0 340 573l-6-1 .6-3 .4-3-2-1c-1.2-11.3 6.9-23.7 14-32"/><path fill="#6d2922" d="M740 710h342v1H740z"/><path fill="#794238" d="M987.7 653.9h15.2l38.9-.1h14.1c3.1.2 3.1.2 4.1 2.2h-2.8l-12.7.4-4.4.2h-4.3l-4 .2q-5.9.4-11.8 1.2l1 2h-15.8c-8.7-.1-8.7-.1-13.2 1h-12l1-2-5-1v2l-5-1c5.5-4.7 9.6-5.1 16.7-5.1"/><path fill="#6e2423" d="M1124 653h1v14l1-11h1l1 18c.6 16.7-6.6 29-20 39h-2l-1-3h3v-2l-6 2v-2l-4 1c4-4 4-4 8-6.9 3.6-2.8 6.2-5.5 9-9.1l1 4h3l1-7 1.5-4a55 55 0 0 0 1.6-17.9c-.2-11.8-.2-11.8.9-15.1"/><path fill="#7b3331" d="M1120 569c2 4 2 4 3 9l2-2c4 8.1 2.1 21.4 2 30.3V621h-3l-1 5-3 3v-4.5l-.7-34v-3.2q0-5.9-1-11.8c-.3-2.5-.3-2.5 1.7-6.5"/><path fill="#95d582" d="M689 900c5.5 1 6 1.7 9 6-3 0-3 0-6-2l-7 4h-2l-1 3h-4l-1 3h-2v5l-2 3c.4 3.7.4 3.7 1 7-6.7-5.5-6.7-5.5-9-10l-3-1c-3-3-3-3-3-7l-3-1c-1-3-1-3 0-6h2v2h2v-2c3-.7 3-.7 6-1l1 2 4 1v5c7.5-1 14.4-3.8 18-11"/><path fill="#642523" d="M1001 494h85c-4.3 4.3-8.1 3.7-14 4 3.3 3.3 7.5 2.7 12 3v1h-83v-1h52v-3l-8-1v-1l-44-1z"/><path fill="#e8dfca" d="M974 688c3.9 2.6 6.2 2.3 10.9 2.3h5l5.3.1 63.8.6v1l-80 1 7 1v1c-5 1-5 1-8 1v-2l-2 2-3 1-2-6-4 1v-2h-2v2c-5.2 2.5-10.3 2.2-16 2 1-4 1-4 2-6h-2v-2h6l3-3c7.3-1.8 11-.6 16 5"/><path fill="#6d2922" d="M411 710h308v1H411z"/><path fill="#89524c" d="M912 711h68v1l-4.5.4-4.5.6v3l-41.9.1h-3.5c-8.3 0-8.3 0-11.6-1.1v-2z"/><path fill="#702923" d="M374 748h1v288h-1z"/><path fill="#fae3cb" d="m435 1094 1 3 3-3c5.1 0 5.6 1.4 9 5l5 3v2l4 2h-5l.6 4.9c.4 5.1.4 5.1-1.6 7.1h2v2c-9.7-3.9-17-14-22-23 2-3 2-3 4-3"/><path fill="#652a27" d="m1060 685 1 1h6c-5.3 5.3-6.5 5.1-13.8 5.1h-15.8L979 691v-1l39-1v-1h-16c5.2-2.6 8.8-2.2 14.6-2.2h3.1l28.8.3c4.5-.1 7-1.1 11.5-1.1"/><path fill="#f4dcc6" d="M851 383c10 1 16.2 6 24 12l3 2v2h3l5 5 3.8 3.2c3.2 2.8 3.2 2.8 3.2 4.8l4 2 2 3c-6.7-.9-6.7-.9-9-2v-3l-9-6v-2l-4-1q-7.5-3.5-14.2-8.2A48 48 0 0 0 852 390l1-3-2-1z"/><path fill="#f9e577" d="m344 555 4 3c-1 2-1 2-3 2l.6 2.8c.4 3.2.4 3.2-1.6 6.2 5-2 5-2 7-3l-2 5-2.9 10.3-1.1 2.7h-3c-1.1 6.3-1.1 12.6-1.2 19v6l-.3 30-.2 17.6-.3 34.4h-1l-.2-103.2v-3.1c0-10.4 2-19.8 5.2-29.7"/><path fill="#7f3e2d" d="M612 825c11.2-.6 18.5 1 27 9v2l4 2 5 6 2 1v2l4 2 3 4c-3 1-3 1-5 0l-1-3-3-1v-2h-2l-6-7-2-1-1 2 4 1-1 2-4-2.2-9.6-5C623 835 623 835 623 833c-9.5.9-9.5.9-14 2 4.2-4.2 8.3-4.1 14-5l-5-1v-2l-6-1z"/><path fill="#fefbef" d="M1241 1420h38v7h-38z"/><path fill="#fce356" d="M384 765h1c.3 58 .3 58-2 79h-2l-1 20c-3-1-3-1-3.4-4v-8.6l.1-4.7V842c.1-11.4.1-11.4 1.3-16h2v-6h2v-12h2z"/><path fill="#743129" d="m374 596 3 1c.3 4.4.3 4.4.3 10.4v3.1l-.2 16.8-.1 16.7-2-2v5h-2l-1 5h-1v-52h2c0 4 0 7.1-1 11 3.4-1.7 2.2-4.6 2.1-8v-4z"/><path fill="#67261b" d="M377 585h1v3.5l.7 85c.3 4.4 1.2 8.2 2.3 12.5 0 5 0 5-3 9-5-1.3-5.3-2.2-7-7-.2-4-.3-7.1 1-11h2v3h2c-.7-6.6-.7-6.6-3-10h2a2028 2028 0 0 0 1.7-65.3z"/><path fill="#8e4427" d="m376 572 2 1-1 2-.5 11.4c-.4 11.2-.4 11.2-1.5 14.6v14l-1-4h-2l1-11h-2l-1 77h-1l-.1-88.6c.2-8 .2-8 1.1-11.4l5-1z"/><path fill="#fbd4bc" d="M557 1119h239v1H557z"/><path fill="#f0cdb6" d="M1082 973h1v83h-1v-3.3l-.3-14.5v-5.1l-.3-9.5c-.4-3.6-.4-3.6-3.4-6.6-.2-4.7-.2-4.7 0-9h-4l2-5h2v-20h3z"/><path fill="#fae5d0" d="M1103 552c6.1 4.8 12 9.8 12 18-4-2-4-2-5-6l-6 1v-2l-4.3.6c-4.7.4-4.7.4-7.7-.6v5c-2-1-2-1-3-4.8-1-4.2-1-4.2-4-8.2 1-2 1-2 4.8-2l4.8.4 4.7.3 3.7.3z"/><path fill="#9a5435" d="M338 572c3.8 1.9 2.2 7.8 2.1 11.6v3.3l-.4 39-.2 20.6-.5 40.5h-1l-1-80-3 2v-6.8l-.1-3.8c.1-3.4.1-3.4 1.1-6.4h-2l.6-2.6c.4-3.4.4-3.4-.2-7.2l-.4-3.2 3-1c1.2-3 1.2-3 2-6"/><path fill="#6d2924" d="M501 1150h231v1H501z"/><path fill="#feeb77" d="m738 318 17-.2h9.7l4.3-.1c4.3.3 7.2 1.3 11 3.3v2c-11.7.1-11.7.1-17-1v2c-25.1 2.2-25.1 2.2-30-1l3-1v-2h2z"/><path fill="#f8ecd8" d="M416 1058h3l-1 4 4-1 .4 3.7c.6 4.3.6 4.3 2.6 9.3v3l3 1c5 6.3 5 6.3 5 10l4 2 4 4-4 1-1 3-1-4-5 2c-2.1-3-3.5-5.6-5-9l-1.5-3.5q-5.3-12.3-7.5-25.5"/><path fill="#f6c758" d="M340 679h1v3.7l.3 4.8v4.8c.7 5 2.2 8.3 4.7 12.7l2 4 .3-3 .7-3c3 0 3 0 5 3l-1 4c2 5 2 5 4.2 8.7 1.8 3.3 1.8 3.3.8 5.3h2l3 5a50 50 0 0 0 5 4l4 3c1-1 1-1 0-4 2 0 2 0 5 5 .3 4.9.3 4.9.2 10.3v5.5l-.2 4.2h-1l.2-3.6.1-4.8.2-4.7c-.5-3.9-.5-3.9-5.5-5.9-20.1-14.4-33.6-33.6-31-59"/><path fill="#fdfae2" d="M946.6 554.8h46l22.4.1 44 .1v1l-5.2.2-6.8.2-3.4.2c-17.2.6-17.2.6-19.6 5.4h-4v-4c-29-.6-58-1.2-87-1 3.5-3.5 8.9-2.3 13.6-2.2"/><path fill="#e5c051" d="M989.2 661.8h14.6l50.7-.2c4.1.5 7.5 1.4 9.5 5.4h-3v-2l-54.3-.2h-4.5c-8.3 0-16.2.1-24.2 2.2l-1 5h-1l-1 5h-1c-.5-6.7-.5-9.9 5-14 3.6-1.2 6.5-1.1 10.2-1.2"/><path fill="#fbe36b" d="M774 319c7-.3 13.2.6 20 2l1 3h4v2l4.2-1c4.8-1 4.8-1 9.8-1v2l2 1q-32.5.3-65-2v-1h13v-2h7.4l4.1-.1c3.5.1 3.5.1 5.5 1.1v-2l-6-1z"/><path fill="#7c2f1f" d="M337 603h1v3.1l.7 61.5v5.3q0 12.6 1.3 25.1c-2.4-3.6-2.2-5.7-2-10h-2l-1 5c-3.2-3.2-1.7-6.4-1.3-10.6q.6-7.6.3-15.4h2v-2.6q-.2-30.8 1-61.4"/><path fill="#fadabf" d="M1172 557c9.8 3.3 12.6 21 14 30l-4-2c.3-3.6.3-3.6 1-7h-2l-1-4-2 2-2-5-.9 5.2c-1.1 5.8-1.1 5.8-3.1 10.8h-1c-1-5-1.1-10-1.1-15.1v-4.2c.1-3.8.4-7.2 2.1-10.7"/><path fill="#792e1d" d="M376 640v19.9l.1 4.2v4c-.1 2.9-.1 2.9-1.1 3.9l1 1v7h-2v-3h-2l-1 8h-1v-33h2v-7l1 2h2l-1-5c1-2 1-2 2-2"/><path fill="#f5ce52" d="M422 532v1l-4.3.8A55 55 0 0 0 386 551l-3 3.2a65 65 0 0 0-12 22.8h-1c0-6 0-6 1-7 .4-8.8.4-8.8-2-10l4-1v2h3l1-6h2l1-3h3v-3h2v-4h2l1-4 4-2v-2l4-.4c4.9-.6 8.5-1.8 13-3.6 4.5-1 8.4-1 13-1"/><path fill="#f8d06e" d="M369 577h1v3.7l-.2 85.9v5.3c.6 12.8 4.5 29.7 17.2 36.1v2l4 2 1 2-5-2-3-1-1-3-5-5c-3-4-3-4-3-6h-2v-3h-2c-4-11.5-3.4-23.4-3.3-35.4v-39l.1-30v-5.4c.2-4.2.2-4.2 1.2-7.2"/><path fill="#f2ca54" d="m625 385 3 1q-1 .7-2 1.7-8.6 6.9-16.7 14.3l-4.9 4c-3.6 3-6.4 6.5-9.4 10l-4.4 4.8q-7 8-13.6 16.2c-1-4-1-4-1-6h3v-2h2v-4c4-3 4-3 6-3v-2h3v-3l3-2 .4-3c.9-4.5 3.6-4.7 7.6-6v-5c3-2 3-2 6-2.3 3-.7 3-.7 6-5.7l3-1 3-2h2v-2l4-1z"/><path fill="#744035" d="M735 930v2l4 2 6 7c-2 1-2 1-6-1v-2l-6-2-2-1-1 3a65 65 0 0 1-11-11l-3-3h6v-2c5.5-1.8 9.3 4.3 13 8"/><path fill="#fa805f" d="M1155 565h2a50 50 0 0 1 2.2 15.9v14.6l-.2 53.5c-2.8-2.8-2.3-4.5-2.3-8.4v-8.5l-.3-38.1v-4.4c0-7.8-.7-14.3-3.4-21.6h2z"/><path fill="#dfb8a3" d="M1168 556h4c.1 6.9.1 6.9-1 8-1.3 12.9-1.2 25.8-1.3 38.8l-.2 25.8-.2 19-.3 37.4h-1v-4.3l-.7-99.1v-3.2c0-6-.8-11.5-2.3-17.4h2v-2h2z"/><path fill="#6d2a21" d="M913 374h9v3l3-1c5 2 5 2 9 6v6h3c0 2 0 2-3 4-7.9-1.6-10.9-6-16-12l-5-4z"/><path fill="#6c251c" d="M445 1125h8v2l5 1 1 2 8 4v-2c5 1 5 1 9 5l-2 1v4c-11.2 0-21.2-8.3-29-16z"/><path fill="#f4e2e0" d="M435 540.8h56.5l27.5.1 54 .1v1l-149 1 1 2c-9.6.2-9.6.2-13-2 7.6-2.5 15-2.3 23-2.2"/><path fill="#77d19a" d="M805 913c-2.3 3.5-4.3 4.2-8 6l-2 2h-4l-2 5c-3.1 1.3-3.1 1.3-6 2v-3l-2-1v3h-2l-1 4h-2v2h-2v2l-2.7.4c-3.3.6-3.3.6-7.3 4.6l-2-1c21.8-22 21.8-22 30.6-22 4.8 0 8.5-6 12.4-4"/><path fill="#fcbd56" d="M400 716c6.6 2.2 13.3 2.1 20.2 2.2l38 .3 18.5.2 36.3.3v1l-92.7 1.3-3.8.2c-7.8 0-13.7-1.3-20.9-4.4-2.6-1.1-2.6-1.1-5.6-1.1 0-5.9 6.8-1.3 10 0"/><path fill="#fadabf" d="m1154 533 1 2 4 2c3 4 3 4 3 6h2a111 111 0 0 1 7.2 9.2c1.8 2.8 1.8 2.8.8 4.8h-3v2h-2v2c-2 0-2 0-3.5-3.4l-1.7-4.5c-2.8-6.8-5.8-13-9.8-19.1z"/><path fill="#6e2c2a" d="m1031 495 14.7-.3q4.2 0 8.3.3l1 3h-2v3h-36c1.6-3.3 4.1-2.2 7.6-2.1h3.6l2.8.1z"/><path fill="#612522" d="M797 494h146v1H797z"/><path fill="#fdc03d" d="M577 515h2l1 3h2c1 4 1 4 1 8 3 1 3 1 6 1.4 3 .6 3 .6 7 3.6h-33v-2c3.3-.6 3.3-.6 7.5-1.1l4.2-.5 3.3-.4-1-5z"/><path fill="#edcb4d" d="M980 681c55.3-.2 55.3-.2 78 1v1h-78z"/><path fill="#883633" d="m1089 495-1 2h2v2l7-1c-.6 3-.6 3-2 6-3 .4-3 .4-6.6-.1l-3.6-.5-2.8-.4v-1l-4.4-.4c-4.6-.6-4.6-.6-5.6-2.6l-3-2 3-.1 3.8-.3 3.8-.2c4.3-.5 5.3-2.8 9.4-1.4"/><path fill="#e2d5c8" d="M505 480c-1 10-1 10-3 14h-5l1-2h-3c-3-1-3-1-3.4-5.5.4-4.5.4-4.5 1.4-5.5h5l1 3 1-3c4-1 4-1 5-1"/><path fill="#65241c" d="M936 1143h69v1a689 689 0 0 1-52.6 1H936z"/><path fill="#943632" d="M1159 578h1v113h-1z"/><path fill="#f0d175" d="M813 323a162 162 0 0 1 26 7q4 1.4 8 3v3l-5-2a53 53 0 0 0-13-3l-1-1q-9-1.3-18-1.6l-5.1-.2-3.9-.2v-1l12-1z"/><path fill="#f1ecd4" d="m1473 1422 3 1c.4 5.5.4 5.5 0 11l-4 1c-.7 4.6-.7 4.6-1 9h2l1 3c-4 3-4 3-6 3-3-10.6-3-10.6-3-16h9z"/><path fill="#65241c" d="M686 1146h55v2h-55z"/><path fill="#fdf5db" d="M755 557h19c-1.5 3-3.8 2.6-7 3l4 1v2h-3l-1 5h-5c-.8-3.5-.8-3.5-1-7l-5 1z"/><path fill="#7a2f28" d="M414 876v73h-1c-1.1-45.5-1.1-45.5-1.1-61.8V884c0-8 0-8 2.1-8M413 777h1v99h-1z"/><path fill="#f0d175" d="M782 318c6.5-.2 12.5.6 18.9 1.9l5.6 1c4.5 1.1 4.5 1.1 6.5 3.1-9.5 2-9.5 2-14 2v-2h-4l-1-2q-4.6-.9-9.4-1.4l-2.6-.6zM740.4 315.7h15.9c8.8 0 17.1.2 25.7 2.3v1l-53-1c4-2.7 6.6-2.3 11.4-2.3"/><path fill="#612522" d="M656 494h93v1h-93z"/><path fill="#91332e" d="M1121 766h1v92h-1z"/><path fill="#612522" d="M560 494h91v1h-91z"/><path fill="#883633" d="M992 502h90v1h-90z"/><path fill="#7a2f28" d="M658.7 1147.9h5l5.6.1 5.5.1 14.7.2 15 .2 29.5.5v1h-84c1.7-3.5 5.1-2.2 8.7-2.1"/><path fill="#943632" d="M1160 691c.7 8-.9 12.7-4.6 19.4-1.4 2.6-1.4 2.6-2.4 5.6l-1 3c-3 0-3 0-5-1l1.6-3.1c4-7.6 7.3-14.7 9.4-22.9 1-1 1-1 2-1"/><path fill="#702923" d="M1129 861h1v56c-6-6-2.7-18.1-2-26v-8.5q.2-10.7 1-21.5"/><path fill="#7c2321" d="M1121 742h2v59h-1c-.6-19.7-1.2-39.3-1-59"/><path fill="#f5dbc0" d="M997 493h83v1h-83z"/><path fill="#e2d5c8" d="M414 493h83v1h-83z"/><path fill="#91332e" d="M1130 779h1v80h-1z"/><path fill="#f1ecd4" d="M1474 1446c3.3 1.6 2.5 4.5 2.7 8l.2 3.8c.1 3.2.1 3.2-.9 5.2v4.1l-1 3.9c-4 .5-4 .5-8 0v-3l7 2-1.5-4.8c-1.5-5.2-1.5-5.2-1.5-8.2l2-1z"/><path fill="#943632" d="m1147 719 1 4h2c-1 2-1 2-4 2l2 4v-2l2 1c-2 5-2 5-5 7h-3c0-2 0-2 2-4l-1-4c-4 4-4 4-5 7h-5l2-1.9q6-6.4 12-13.1"/><path fill="#fdfae2" d="M1059 555h24l-4 2 4 4-5 1v-4c-9.7-.4-9.7-.4-12 3l-3-1v-3h-4z"/><path fill="#7c2321" d="M1129 753h2q.3 23.5-1 47h-1z"/><path fill="#91332e" d="M1128 897v11h1v11c-3 0-3 0-5-2-.3-2.8-.3-2.8-.2-6.2v-3.4c.8-10.4.8-10.4 4.2-10.4"/><path fill="#6d2924" d="M670 1145h70v1h-70z"/><path fill="#65241c" d="m582.7 1147.4 21.3.6v1h-64v-1q21.3-1.3 42.7-.6"/><path fill="#6d2924" d="m710.2 1147.4 22.8.6v1h-67v-1q22.1-1.3 44.2-.6"/><path fill="#edcb4d" d="M978 667c4 0 4 0 5 2h2v3h-5l2 4-3 1-1-2c1 5 1 5 2 7-5-2-5-2-6-5 .6-5.8.6-5.8 3-7z"/><path fill="#792e1d" d="M370 585h1v67h-1z"/><path fill="#733128" d="M1014 495h17v4l-15 1v-2h-2z"/><path fill="#6e2c2a" d="M1004 496h2v2h2v-2h6v2h2l1 3-7.2.1-4 .1c-3.8-.2-3.8-.2-8.8-2.2v-1h7z"/></svg>